<?xml version="1.0" encoding="UTF-8" standalone="no"?><svg xmlns="http://www.w3.org/2000/svg" xmlns:xlink="http://www.w3.org/1999/xlink" clip-rule="evenodd" stroke-miterlimit="10" viewBox="0 0 1920 1080"><desc>SVG generated by Keynote</desc><defs></defs><g transform="matrix(1.00, 0.00, -0.00, -1.00, 0.0, 1080.0)"><path d="M 0.0 1080.0 L 1920.0 1080.0 L 1920.0 0.0 L 0.0 0.0 Z M 0.0 1080.0 " fill="#000000"></path><text xml:space="preserve" font-family="Avenir-Light,Avenir" font-size="62.0" fill="#FEFFFF" transform="matrix(1.00, 0.00, -0.00, -1.00, 101.0, 945.7)">R</text><text xml:space="preserve" font-family="Avenir-Light,Avenir" font-size="62.0" fill="#FEFFFF" transform="matrix(1.00, 0.00, -0.00, -1.00, 147.7, 945.7)">E</text><text xml:space="preserve" font-family="Avenir-Light,Avenir" font-size="62.0" fill="#FEFFFF" transform="matrix(1.00, 0.00, -0.00, -1.00, 194.4, 945.7)">S</text><text xml:space="preserve" font-family="Avenir-Light,Avenir" font-size="62.0" fill="#FEFFFF" transform="matrix(1.00, 0.00, -0.00, -1.00, 238.8, 945.7)">O</text><text xml:space="preserve" font-family="Avenir-Light,Avenir" font-size="62.0" fill="#FEFFFF" transform="matrix(1.00, 0.00, -0.00, -1.00, 300.4, 945.7)">U</text><text xml:space="preserve" font-family="Avenir-Light,Avenir" font-size="62.0" fill="#FEFFFF" transform="matrix(1.00, 0.00, -0.00, -1.00, 352.7, 945.7)">R</text><text xml:space="preserve" font-family="Avenir-Light,Avenir" font-size="62.0" fill="#FEFFFF" transform="matrix(1.00, 0.00, -0.00, -1.00, 399.4, 945.7)">C</text><text xml:space="preserve" font-family="Avenir-Light,Avenir" font-size="62.0" fill="#FEFFFF" transform="matrix(1.00, 0.00, -0.00, -1.00, 453.0, 945.7)">E</text><text xml:space="preserve" font-family="Avenir-Light,Avenir" font-size="62.0" fill="#FEFFFF" transform="matrix(1.00, 0.00, -0.00, -1.00, 499.7, 945.7)">S</text><text xml:space="preserve" font-family="Avenir-Light,Avenir" font-size="45.0" fill="#646363" transform="matrix(1.00, 0.00, -0.00, -1.00, 101.0, 724.0)">•</text><text xml:space="preserve" font-family="Avenir-Light,Avenir" font-size="50.0" fill="#FEFFFF" transform="matrix(1.00, 0.00, -0.00, -1.00, 151.0, 722.3)">s</text><text xml:space="preserve" font-family="Avenir-Light,Avenir" font-size="50.0" fill="#FEFFFF" transform="matrix(1.00, 0.00, -0.00, -1.00, 172.3, 722.3)">t</text><text xml:space="preserve" font-family="Avenir-Light,Avenir" font-size="50.0" fill="#FEFFFF" transform="matrix(1.00, 0.00, -0.00, -1.00, 188.9, 722.3)">e</text><text xml:space="preserve" font-family="Avenir-Light,Avenir" font-size="50.0" fill="#FEFFFF" transform="matrix(1.00, 0.00, -0.00, -1.00, 216.8, 722.3)">r</text><text xml:space="preserve" font-family="Avenir-Light,Avenir" font-size="50.0" fill="#FEFFFF" transform="matrix(1.00, 0.00, -0.00, -1.00, 233.4, 722.3)">l</text><text xml:space="preserve" font-family="Avenir-Light,Avenir" font-size="50.0" fill="#FEFFFF" transform="matrix(1.00, 0.00, -0.00, -1.00, 245.4, 722.3)">i</text><text xml:space="preserve" font-family="Avenir-Light,Avenir" font-size="50.0" fill="#FEFFFF" transform="matrix(1.00, 0.00, -0.00, -1.00, 257.4, 722.3)">n</text><text xml:space="preserve" font-family="Avenir-Light,Avenir" font-size="50.0" fill="#FEFFFF" transform="matrix(1.00, 0.00, -0.00, -1.00, 285.2, 722.3)">g</text><text xml:space="preserve" font-family="Avenir-Light,Avenir" font-size="50.0" fill="#FEFFFF" transform="matrix(1.00, 0.00, -0.00, -1.00, 315.8, 722.3)">.</text><text xml:space="preserve" font-family="Avenir-Light,Avenir" font-size="50.0" fill="#FEFFFF" transform="matrix(1.00, 0.00, -0.00, -1.00, 328.8, 722.3)">c</text><text xml:space="preserve" font-family="Avenir-Light,Avenir" font-size="50.0" fill="#FEFFFF" transform="matrix(1.00, 0.00, -0.00, -1.00, 352.9, 722.3)">o</text><text xml:space="preserve" font-family="Avenir-Light,Avenir" font-size="50.0" fill="#FEFFFF" transform="matrix(1.00, 0.00, -0.00, -1.00, 382.6, 722.3)">d</text><text xml:space="preserve" font-family="Avenir-Light,Avenir" font-size="50.0" fill="#FEFFFF" transform="matrix(1.00, 0.00, -0.00, -1.00, 413.1, 722.3)">e</text><text xml:space="preserve" font-family="Avenir-Light,Avenir" font-size="50.0" fill="#FEFFFF" transform="matrix(1.00, 0.00, -0.00, -1.00, 440.9, 722.3)">s</text><text xml:space="preserve" font-family="Avenir-Light,Avenir" font-size="50.0" fill="#FEFFFF" transform="matrix(1.00, 0.00, -0.00, -1.00, 462.2, 722.3)"> </text><text xml:space="preserve" font-family="Avenir-Light,Avenir" font-size="45.0" fill="#646363" transform="matrix(1.00, 0.00, -0.00, -1.00, 101.0, 597.0)">•</text><text xml:space="preserve" font-family="Avenir-Light,Avenir" font-size="50.0" fill="#FEFFFF" transform="matrix(1.00, 0.00, -0.00, -1.00, 151.0, 595.3)">h</text><text xml:space="preserve" font-family="Avenir-Light,Avenir" font-size="50.0" fill="#FEFFFF" transform="matrix(1.00, 0.00, -0.00, -1.00, 178.8, 595.3)">t</text><text xml:space="preserve" font-family="Avenir-Light,Avenir" font-size="50.0" fill="#FEFFFF" transform="matrix(1.00, 0.00, -0.00, -1.00, 195.5, 595.3)">t</text><text xml:space="preserve" font-family="Avenir-Light,Avenir" font-size="50.0" fill="#FEFFFF" transform="matrix(1.00, 0.00, -0.00, -1.00, 212.2, 595.3)">p</text><text xml:space="preserve" font-family="Avenir-Light,Avenir" font-size="50.0" fill="#FEFFFF" transform="matrix(1.00, 0.00, -0.00, -1.00, 242.7, 595.3)">:</text><text xml:space="preserve" font-family="Avenir-Light,Avenir" font-size="50.0" fill="#FEFFFF" transform="matrix(1.00, 0.00, -0.00, -1.00, 255.7, 595.3)">/</text><text xml:space="preserve" font-family="Avenir-Light,Avenir" font-size="50.0" fill="#FEFFFF" transform="matrix(1.00, 0.00, -0.00, -1.00, 274.2, 595.3)">/</text><text xml:space="preserve" font-family="Avenir-Light,Avenir" font-size="50.0" fill="#FEFFFF" transform="matrix(1.00, 0.00, -0.00, -1.00, 292.7, 595.3)">g</text><text xml:space="preserve" font-family="Avenir-Light,Avenir" font-size="50.0" fill="#FEFFFF" transform="matrix(1.00, 0.00, -0.00, -1.00, 323.2, 595.3)">u</text><text xml:space="preserve" font-family="Avenir-Light,Avenir" font-size="50.0" fill="#FEFFFF" transform="matrix(1.00, 0.00, -0.00, -1.00, 351.1, 595.3)">i</text><text xml:space="preserve" font-family="Avenir-Light,Avenir" font-size="50.0" fill="#FEFFFF" transform="matrix(1.00, 0.00, -0.00, -1.00, 363.1, 595.3)">d</text><text xml:space="preserve" font-family="Avenir-Light,Avenir" font-size="50.0" fill="#FEFFFF" transform="matrix(1.00, 0.00, -0.00, -1.00, 393.6, 595.3)">e</text><text xml:space="preserve" font-family="Avenir-Light,Avenir" font-size="50.0" fill="#FEFFFF" transform="matrix(1.00, 0.00, -0.00, -1.00, 421.4, 595.3)">s</text><text xml:space="preserve" font-family="Avenir-Light,Avenir" font-size="50.0" fill="#FEFFFF" transform="matrix(1.00, 0.00, -0.00, -1.00, 442.7, 595.3)">.</text><text xml:space="preserve" font-family="Avenir-Light,Avenir" font-size="50.0" fill="#FEFFFF" transform="matrix(1.00, 0.00, -0.00, -1.00, 455.7, 595.3)">r</text><text xml:space="preserve" font-family="Avenir-Light,Avenir" font-size="50.0" fill="#FEFFFF" transform="matrix(1.00, 0.00, -0.00, -1.00, 472.4, 595.3)">u</text><text xml:space="preserve" font-family="Avenir-Light,Avenir" font-size="50.0" fill="#FEFFFF" transform="matrix(1.00, 0.00, -0.00, -1.00, 500.2, 595.3)">b</text><text xml:space="preserve" font-family="Avenir-Light,Avenir" font-size="50.0" fill="#FEFFFF" transform="matrix(1.00, 0.00, -0.00, -1.00, 530.7, 595.3)">y</text><text xml:space="preserve" font-family="Avenir-Light,Avenir" font-size="50.0" fill="#FEFFFF" transform="matrix(1.00, 0.00, -0.00, -1.00, 553.9, 595.3)">o</text><text xml:space="preserve" font-family="Avenir-Light,Avenir" font-size="50.0" fill="#FEFFFF" transform="matrix(1.00, 0.00, -0.00, -1.00, 583.5, 595.3)">n</text><text xml:space="preserve" font-family="Avenir-Light,Avenir" font-size="50.0" fill="#FEFFFF" transform="matrix(1.00, 0.00, -0.00, -1.00, 611.4, 595.3)">r</text><text xml:space="preserve" font-family="Avenir-Light,Avenir" font-size="50.0" fill="#FEFFFF" transform="matrix(1.00, 0.00, -0.00, -1.00, 628.0, 595.3)">a</text><text xml:space="preserve" font-family="Avenir-Light,Avenir" font-size="50.0" fill="#FEFFFF" transform="matrix(1.00, 0.00, -0.00, -1.00, 654.0, 595.3)">i</text><text xml:space="preserve" font-family="Avenir-Light,Avenir" font-size="50.0" fill="#FEFFFF" transform="matrix(1.00, 0.00, -0.00, -1.00, 666.0, 595.3)">l</text><text xml:space="preserve" font-family="Avenir-Light,Avenir" font-size="50.0" fill="#FEFFFF" transform="matrix(1.00, 0.00, -0.00, -1.00, 678.0, 595.3)">s</text><text xml:space="preserve" font-family="Avenir-Light,Avenir" font-size="50.0" fill="#FEFFFF" transform="matrix(1.00, 0.00, -0.00, -1.00, 699.2, 595.3)">.</text><text xml:space="preserve" font-family="Avenir-Light,Avenir" font-size="50.0" fill="#FEFFFF" transform="matrix(1.00, 0.00, -0.00, -1.00, 712.2, 595.3)">o</text><text xml:space="preserve" font-family="Avenir-Light,Avenir" font-size="50.0" fill="#FEFFFF" transform="matrix(1.00, 0.00, -0.00, -1.00, 742.0, 595.3)">r</text><text xml:space="preserve" font-family="Avenir-Light,Avenir" font-size="50.0" fill="#FEFFFF" transform="matrix(1.00, 0.00, -0.00, -1.00, 757.7, 595.3)">g</text><text xml:space="preserve" font-family="Avenir-Light,Avenir" font-size="50.0" fill="#FEFFFF" transform="matrix(1.00, 0.00, -0.00, -1.00, 788.2, 595.3)"> </text><g><clipPath id="clip0x6180006bb1e0"><path d="M 150.0 589.3 L 788.2 589.3 L 788.2 593.8 L 150.0 593.8 Z M 150.0 589.3 "></path></clipPath><g clip-path="url(#clip0x6180006bb1e0)"><path d="M 54.0 264.5 L 691.2 264.5 " fill="none" stroke="#FEFFFF" stroke-width="2.50" transform="matrix(1.00, 0.00, 0.00, -1.00, 97.0, 856.0)"></path></g></g><text xml:space="preserve" font-family="Avenir-Light,Avenir" font-size="45.0" fill="#646363" transform="matrix(1.00, 0.00, -0.00, -1.00, 101.0, 470.0)">•</text><text xml:space="preserve" font-family="Avenir-Light,Avenir" font-size="50.0" fill="#FEFFFF" transform="matrix(1.00, 0.00, -0.00, -1.00, 151.0, 468.3)">h</text><text xml:space="preserve" font-family="Avenir-Light,Avenir" font-size="50.0" fill="#FEFFFF" transform="matrix(1.00, 0.00, -0.00, -1.00, 178.8, 468.3)">t</text><text xml:space="preserve" font-family="Avenir-Light,Avenir" font-size="50.0" fill="#FEFFFF" transform="matrix(1.00, 0.00, -0.00, -1.00, 195.5, 468.3)">t</text><text xml:space="preserve" font-family="Avenir-Light,Avenir" font-size="50.0" fill="#FEFFFF" transform="matrix(1.00, 0.00, -0.00, -1.00, 212.2, 468.3)">p</text><text xml:space="preserve" font-family="Avenir-Light,Avenir" font-size="50.0" fill="#FEFFFF" transform="matrix(1.00, 0.00, -0.00, -1.00, 242.7, 468.3)">:</text><text xml:space="preserve" font-family="Avenir-Light,Avenir" font-size="50.0" fill="#FEFFFF" transform="matrix(1.00, 0.00, -0.00, -1.00, 255.7, 468.3)">/</text><text xml:space="preserve" font-family="Avenir-Light,Avenir" font-size="50.0" fill="#FEFFFF" transform="matrix(1.00, 0.00, -0.00, -1.00, 274.2, 468.3)">/</text><text xml:space="preserve" font-family="Avenir-Light,Avenir" font-size="50.0" fill="#FEFFFF" transform="matrix(1.00, 0.00, -0.00, -1.00, 292.7, 468.3)">r</text><text xml:space="preserve" font-family="Avenir-Light,Avenir" font-size="50.0" fill="#FEFFFF" transform="matrix(1.00, 0.00, -0.00, -1.00, 309.4, 468.3)">u</text><text xml:space="preserve" font-family="Avenir-Light,Avenir" font-size="50.0" fill="#FEFFFF" transform="matrix(1.00, 0.00, -0.00, -1.00, 337.1, 468.3)">b</text><text xml:space="preserve" font-family="Avenir-Light,Avenir" font-size="50.0" fill="#FEFFFF" transform="matrix(1.00, 0.00, -0.00, -1.00, 367.7, 468.3)">y</text><text xml:space="preserve" font-family="Avenir-Light,Avenir" font-size="50.0" fill="#FEFFFF" transform="matrix(1.00, 0.00, -0.00, -1.00, 390.9, 468.3)">o</text><text xml:space="preserve" font-family="Avenir-Light,Avenir" font-size="50.0" fill="#FEFFFF" transform="matrix(1.00, 0.00, -0.00, -1.00, 420.6, 468.3)">n</text><text xml:space="preserve" font-family="Avenir-Light,Avenir" font-size="50.0" fill="#FEFFFF" transform="matrix(1.00, 0.00, -0.00, -1.00, 448.4, 468.3)">r</text><text xml:space="preserve" font-family="Avenir-Light,Avenir" font-size="50.0" fill="#FEFFFF" transform="matrix(1.00, 0.00, -0.00, -1.00, 465.0, 468.3)">a</text><text xml:space="preserve" font-family="Avenir-Light,Avenir" font-size="50.0" fill="#FEFFFF" transform="matrix(1.00, 0.00, -0.00, -1.00, 490.9, 468.3)">i</text><text xml:space="preserve" font-family="Avenir-Light,Avenir" font-size="50.0" fill="#FEFFFF" transform="matrix(1.00, 0.00, -0.00, -1.00, 502.9, 468.3)">l</text><text xml:space="preserve" font-family="Avenir-Light,Avenir" font-size="50.0" fill="#FEFFFF" transform="matrix(1.00, 0.00, -0.00, -1.00, 515.0, 468.3)">s</text><text xml:space="preserve" font-family="Avenir-Light,Avenir" font-size="50.0" fill="#FEFFFF" transform="matrix(1.00, 0.00, -0.00, -1.00, 536.2, 468.3)">.</text><text xml:space="preserve" font-family="Avenir-Light,Avenir" font-size="50.0" fill="#FEFFFF" transform="matrix(1.00, 0.00, -0.00, -1.00, 549.2, 468.3)">o</text><text xml:space="preserve" font-family="Avenir-Light,Avenir" font-size="50.0" fill="#FEFFFF" transform="matrix(1.00, 0.00, -0.00, -1.00, 579.0, 468.3)">r</text><text xml:space="preserve" font-family="Avenir-Light,Avenir" font-size="50.0" fill="#FEFFFF" transform="matrix(1.00, 0.00, -0.00, -1.00, 594.7, 468.3)">g</text><text xml:space="preserve" font-family="Avenir-Light,Avenir" font-size="50.0" fill="#FEFFFF" transform="matrix(1.00, 0.00, -0.00, -1.00, 625.2, 468.3)">/</text><text xml:space="preserve" font-family="Avenir-Light,Avenir" font-size="50.0" fill="#FEFFFF" transform="matrix(1.00, 0.00, -0.00, -1.00, 643.8, 468.3)">c</text><text xml:space="preserve" font-family="Avenir-Light,Avenir" font-size="50.0" fill="#FEFFFF" transform="matrix(1.00, 0.00, -0.00, -1.00, 667.8, 468.3)">o</text><text xml:space="preserve" font-family="Avenir-Light,Avenir" font-size="50.0" fill="#FEFFFF" transform="matrix(1.00, 0.00, -0.00, -1.00, 697.5, 468.3)">m</text><text xml:space="preserve" font-family="Avenir-Light,Avenir" font-size="50.0" fill="#FEFFFF" transform="matrix(1.00, 0.00, -0.00, -1.00, 740.1, 468.3)">m</text><text xml:space="preserve" font-family="Avenir-Light,Avenir" font-size="50.0" fill="#FEFFFF" transform="matrix(1.00, 0.00, -0.00, -1.00, 782.7, 468.3)">u</text><text xml:space="preserve" font-family="Avenir-Light,Avenir" font-size="50.0" fill="#FEFFFF" transform="matrix(1.00, 0.00, -0.00, -1.00, 810.5, 468.3)">n</text><text xml:space="preserve" font-family="Avenir-Light,Avenir" font-size="50.0" fill="#FEFFFF" transform="matrix(1.00, 0.00, -0.00, -1.00, 838.3, 468.3)">i</text><text xml:space="preserve" font-family="Avenir-Light,Avenir" font-size="50.0" fill="#FEFFFF" transform="matrix(1.00, 0.00, -0.00, -1.00, 850.3, 468.3)">t</text><text xml:space="preserve" font-family="Avenir-Light,Avenir" font-size="50.0" fill="#FEFFFF" transform="matrix(1.00, 0.00, -0.00, -1.00, 866.9, 468.3)">y</text><text xml:space="preserve" font-family="Avenir-Light,Avenir" font-size="50.0" fill="#FEFFFF" transform="matrix(1.00, 0.00, -0.00, -1.00, 890.1, 468.3)"> </text><text xml:space="preserve" font-family="Avenir-Light,Avenir" font-size="45.0" fill="#646363" transform="matrix(1.00, 0.00, -0.00, -1.00, 101.0, 343.0)">•</text><text xml:space="preserve" font-family="Avenir-Light,Avenir" font-size="50.0" fill="#FEFFFF" transform="matrix(1.00, 0.00, -0.00, -1.00, 151.0, 341.3)">h</text><text xml:space="preserve" font-family="Avenir-Light,Avenir" font-size="50.0" fill="#FEFFFF" transform="matrix(1.00, 0.00, -0.00, -1.00, 178.8, 341.3)">t</text><text xml:space="preserve" font-family="Avenir-Light,Avenir" font-size="50.0" fill="#FEFFFF" transform="matrix(1.00, 0.00, -0.00, -1.00, 195.5, 341.3)">t</text><text xml:space="preserve" font-family="Avenir-Light,Avenir" font-size="50.0" fill="#FEFFFF" transform="matrix(1.00, 0.00, -0.00, -1.00, 212.2, 341.3)">p</text><text xml:space="preserve" font-family="Avenir-Light,Avenir" font-size="50.0" fill="#FEFFFF" transform="matrix(1.00, 0.00, -0.00, -1.00, 242.7, 341.3)">s</text><text xml:space="preserve" font-family="Avenir-Light,Avenir" font-size="50.0" fill="#FEFFFF" transform="matrix(1.00, 0.00, -0.00, -1.00, 264.0, 341.3)">:</text><text xml:space="preserve" font-family="Avenir-Light,Avenir" font-size="50.0" fill="#FEFFFF" transform="matrix(1.00, 0.00, -0.00, -1.00, 277.0, 341.3)">/</text><text xml:space="preserve" font-family="Avenir-Light,Avenir" font-size="50.0" fill="#FEFFFF" transform="matrix(1.00, 0.00, -0.00, -1.00, 295.5, 341.3)">/</text><text xml:space="preserve" font-family="Avenir-Light,Avenir" font-size="50.0" fill="#FEFFFF" transform="matrix(1.00, 0.00, -0.00, -1.00, 314.0, 341.3)">d</text><text xml:space="preserve" font-family="Avenir-Light,Avenir" font-size="50.0" fill="#FEFFFF" transform="matrix(1.00, 0.00, -0.00, -1.00, 344.6, 341.3)">e</text><text xml:space="preserve" font-family="Avenir-Light,Avenir" font-size="50.0" fill="#FEFFFF" transform="matrix(1.00, 0.00, -0.00, -1.00, 372.4, 341.3)">v</text><text xml:space="preserve" font-family="Avenir-Light,Avenir" font-size="50.0" fill="#FEFFFF" transform="matrix(1.00, 0.00, -0.00, -1.00, 395.5, 341.3)">c</text><text xml:space="preserve" font-family="Avenir-Light,Avenir" font-size="50.0" fill="#FEFFFF" transform="matrix(1.00, 0.00, -0.00, -1.00, 419.6, 341.3)">e</text><text xml:space="preserve" font-family="Avenir-Light,Avenir" font-size="50.0" fill="#FEFFFF" transform="matrix(1.00, 0.00, -0.00, -1.00, 447.4, 341.3)">n</text><text xml:space="preserve" font-family="Avenir-Light,Avenir" font-size="50.0" fill="#FEFFFF" transform="matrix(1.00, 0.00, -0.00, -1.00, 475.2, 341.3)">t</text><text xml:space="preserve" font-family="Avenir-Light,Avenir" font-size="50.0" fill="#FEFFFF" transform="matrix(1.00, 0.00, -0.00, -1.00, 491.8, 341.3)">e</text><text xml:space="preserve" font-family="Avenir-Light,Avenir" font-size="50.0" fill="#FEFFFF" transform="matrix(1.00, 0.00, -0.00, -1.00, 519.6, 341.3)">r</text><text xml:space="preserve" font-family="Avenir-Light,Avenir" font-size="50.0" fill="#FEFFFF" transform="matrix(1.00, 0.00, -0.00, -1.00, 531.6, 341.3)">.</text><text xml:space="preserve" font-family="Avenir-Light,Avenir" font-size="50.0" fill="#FEFFFF" transform="matrix(1.00, 0.00, -0.00, -1.00, 544.6, 341.3)">h</text><text xml:space="preserve" font-family="Avenir-Light,Avenir" font-size="50.0" fill="#FEFFFF" transform="matrix(1.00, 0.00, -0.00, -1.00, 572.5, 341.3)">e</text><text xml:space="preserve" font-family="Avenir-Light,Avenir" font-size="50.0" fill="#FEFFFF" transform="matrix(1.00, 0.00, -0.00, -1.00, 600.2, 341.3)">r</text><text xml:space="preserve" font-family="Avenir-Light,Avenir" font-size="50.0" fill="#FEFFFF" transform="matrix(1.00, 0.00, -0.00, -1.00, 616.0, 341.3)">o</text><text xml:space="preserve" font-family="Avenir-Light,Avenir" font-size="50.0" fill="#FEFFFF" transform="matrix(1.00, 0.00, -0.00, -1.00, 645.7, 341.3)">k</text><text xml:space="preserve" font-family="Avenir-Light,Avenir" font-size="50.0" fill="#FEFFFF" transform="matrix(1.00, 0.00, -0.00, -1.00, 669.8, 341.3)">u</text><text xml:space="preserve" font-family="Avenir-Light,Avenir" font-size="50.0" fill="#FEFFFF" transform="matrix(1.00, 0.00, -0.00, -1.00, 697.5, 341.3)">.</text><text xml:space="preserve" font-family="Avenir-Light,Avenir" font-size="50.0" fill="#FEFFFF" transform="matrix(1.00, 0.00, -0.00, -1.00, 710.5, 341.3)">c</text><text xml:space="preserve" font-family="Avenir-Light,Avenir" font-size="50.0" fill="#FEFFFF" transform="matrix(1.00, 0.00, -0.00, -1.00, 734.6, 341.3)">o</text><text xml:space="preserve" font-family="Avenir-Light,Avenir" font-size="50.0" fill="#FEFFFF" transform="matrix(1.00, 0.00, -0.00, -1.00, 764.3, 341.3)">m</text><text xml:space="preserve" font-family="Avenir-Light,Avenir" font-size="50.0" fill="#FEFFFF" transform="matrix(1.00, 0.00, -0.00, -1.00, 806.9, 341.3)">/</text><text xml:space="preserve" font-family="Avenir-Light,Avenir" font-size="50.0" fill="#FEFFFF" transform="matrix(1.00, 0.00, -0.00, -1.00, 825.4, 341.3)">a</text><text xml:space="preserve" font-family="Avenir-Light,Avenir" font-size="50.0" fill="#FEFFFF" transform="matrix(1.00, 0.00, -0.00, -1.00, 851.4, 341.3)">r</text><text xml:space="preserve" font-family="Avenir-Light,Avenir" font-size="50.0" fill="#FEFFFF" transform="matrix(1.00, 0.00, -0.00, -1.00, 868.0, 341.3)">t</text><text xml:space="preserve" font-family="Avenir-Light,Avenir" font-size="50.0" fill="#FEFFFF" transform="matrix(1.00, 0.00, -0.00, -1.00, 884.7, 341.3)">i</text><text xml:space="preserve" font-family="Avenir-Light,Avenir" font-size="50.0" fill="#FEFFFF" transform="matrix(1.00, 0.00, -0.00, -1.00, 896.7, 341.3)">c</text><text xml:space="preserve" font-family="Avenir-Light,Avenir" font-size="50.0" fill="#FEFFFF" transform="matrix(1.00, 0.00, -0.00, -1.00, 920.7, 341.3)">l</text><text xml:space="preserve" font-family="Avenir-Light,Avenir" font-size="50.0" fill="#FEFFFF" transform="matrix(1.00, 0.00, -0.00, -1.00, 932.7, 341.3)">e</text><text xml:space="preserve" font-family="Avenir-Light,Avenir" font-size="50.0" fill="#FEFFFF" transform="matrix(1.00, 0.00, -0.00, -1.00, 960.5, 341.3)">s</text><text xml:space="preserve" font-family="Avenir-Light,Avenir" font-size="50.0" fill="#FEFFFF" transform="matrix(1.00, 0.00, -0.00, -1.00, 981.8, 341.3)">/</text><text xml:space="preserve" font-family="Avenir-Light,Avenir" font-size="50.0" fill="#FEFFFF" transform="matrix(1.00, 0.00, -0.00, -1.00, 1000.3, 341.3)">g</text><text xml:space="preserve" font-family="Avenir-Light,Avenir" font-size="50.0" fill="#FEFFFF" transform="matrix(1.00, 0.00, -0.00, -1.00, 1030.9, 341.3)">e</text><text xml:space="preserve" font-family="Avenir-Light,Avenir" font-size="50.0" fill="#FEFFFF" transform="matrix(1.00, 0.00, -0.00, -1.00, 1058.7, 341.3)">t</text><text xml:space="preserve" font-family="Avenir-Light,Avenir" font-size="50.0" fill="#FEFFFF" transform="matrix(1.00, 0.00, -0.00, -1.00, 1075.4, 341.3)">t</text><text xml:space="preserve" font-family="Avenir-Light,Avenir" font-size="50.0" fill="#FEFFFF" transform="matrix(1.00, 0.00, -0.00, -1.00, 1092.1, 341.3)">i</text><text xml:space="preserve" font-family="Avenir-Light,Avenir" font-size="50.0" fill="#FEFFFF" transform="matrix(1.00, 0.00, -0.00, -1.00, 1104.1, 341.3)">n</text><text xml:space="preserve" font-family="Avenir-Light,Avenir" font-size="50.0" fill="#FEFFFF" transform="matrix(1.00, 0.00, -0.00, -1.00, 1131.9, 341.3)">g</text><text xml:space="preserve" font-family="Avenir-Light,Avenir" font-size="50.0" fill="#FEFFFF" transform="matrix(1.00, 0.00, -0.00, -1.00, 1162.4, 341.3)">-</text><text xml:space="preserve" font-family="Avenir-Light,Avenir" font-size="50.0" fill="#FEFFFF" transform="matrix(1.00, 0.00, -0.00, -1.00, 1179.1, 341.3)">s</text><text xml:space="preserve" font-family="Avenir-Light,Avenir" font-size="50.0" fill="#FEFFFF" transform="matrix(1.00, 0.00, -0.00, -1.00, 1200.4, 341.3)">t</text><text xml:space="preserve" font-family="Avenir-Light,Avenir" font-size="50.0" fill="#FEFFFF" transform="matrix(1.00, 0.00, -0.00, -1.00, 1217.0, 341.3)">a</text><text xml:space="preserve" font-family="Avenir-Light,Avenir" font-size="50.0" fill="#FEFFFF" transform="matrix(1.00, 0.00, -0.00, -1.00, 1243.0, 341.3)">r</text><text xml:space="preserve" font-family="Avenir-Light,Avenir" font-size="50.0" fill="#FEFFFF" transform="matrix(1.00, 0.00, -0.00, -1.00, 1259.6, 341.3)">t</text><text xml:space="preserve" font-family="Avenir-Light,Avenir" font-size="50.0" fill="#FEFFFF" transform="matrix(1.00, 0.00, -0.00, -1.00, 1276.3, 341.3)">e</text><text xml:space="preserve" font-family="Avenir-Light,Avenir" font-size="50.0" fill="#FEFFFF" transform="matrix(1.00, 0.00, -0.00, -1.00, 1304.1, 341.3)">d</text><text xml:space="preserve" font-family="Avenir-Light,Avenir" font-size="50.0" fill="#FEFFFF" transform="matrix(1.00, 0.00, -0.00, -1.00, 1334.6, 341.3)">-</text><text xml:space="preserve" font-family="Avenir-Light,Avenir" font-size="50.0" fill="#FEFFFF" transform="matrix(1.00, 0.00, -0.00, -1.00, 1351.3, 341.3)">w</text><text xml:space="preserve" font-family="Avenir-Light,Avenir" font-size="50.0" fill="#FEFFFF" transform="matrix(1.00, 0.00, -0.00, -1.00, 1386.5, 341.3)">i</text><text xml:space="preserve" font-family="Avenir-Light,Avenir" font-size="50.0" fill="#FEFFFF" transform="matrix(1.00, 0.00, -0.00, -1.00, 1398.5, 341.3)">t</text><text xml:space="preserve" font-family="Avenir-Light,Avenir" font-size="50.0" fill="#FEFFFF" transform="matrix(1.00, 0.00, -0.00, -1.00, 1415.2, 341.3)">h</text><text xml:space="preserve" font-family="Avenir-Light,Avenir" font-size="50.0" fill="#FEFFFF" transform="matrix(1.00, 0.00, -0.00, -1.00, 1443.0, 341.3)">-</text><text xml:space="preserve" font-family="Avenir-Light,Avenir" font-size="50.0" fill="#FEFFFF" transform="matrix(1.00, 0.00, -0.00, -1.00, 1459.6, 341.3)">r</text><text xml:space="preserve" font-family="Avenir-Light,Avenir" font-size="50.0" fill="#FEFFFF" transform="matrix(1.00, 0.00, -0.00, -1.00, 1476.3, 341.3)">u</text><text xml:space="preserve" font-family="Avenir-Light,Avenir" font-size="50.0" fill="#FEFFFF" transform="matrix(1.00, 0.00, -0.00, -1.00, 1504.1, 341.3)">b</text><text xml:space="preserve" font-family="Avenir-Light,Avenir" font-size="50.0" fill="#FEFFFF" transform="matrix(1.00, 0.00, -0.00, -1.00, 1534.6, 341.3)">y</text><text xml:space="preserve" font-family="Avenir-Light,Avenir" font-size="50.0" fill="#FEFFFF" transform="matrix(1.00, 0.00, -0.00, -1.00, 1557.8, 341.3)"> </text><g><clipPath id="clip0x6180006bda60"><path d="M 150.0 335.3 L 1557.8 335.3 L 1557.8 339.8 L 150.0 339.8 Z M 150.0 335.3 "></path></clipPath><g clip-path="url(#clip0x6180006bda60)"><path d="M 54.0 518.5 L 1460.8 518.5 " fill="none" stroke="#FEFFFF" stroke-width="2.50" transform="matrix(1.00, 0.00, 0.00, -1.00, 97.0, 856.0)"></path></g></g><text xml:space="preserve" font-family="Avenir-Light,Avenir" font-size="45.0" fill="#646363" transform="matrix(1.00, 0.00, -0.00, -1.00, 101.0, 216.0)">•</text><text xml:space="preserve" font-family="Avenir-Light,Avenir" font-size="50.0" fill="#FEFFFF" transform="matrix(1.00, 0.00, -0.00, -1.00, 151.0, 214.3)"> </text><text xml:space="preserve" font-family="Avenir-Light,Avenir" font-size="50.0" fill="#FEFFFF" transform="matrix(1.00, 0.00, -0.00, -1.00, 164.0, 214.3)"> </text><text xml:space="preserve" font-family="Avenir-Light,Avenir" font-size="50.0" fill="#FEFFFF" transform="matrix(1.00, 0.00, -0.00, -1.00, 177.0, 214.3)"> </text><text xml:space="preserve" font-family="Avenir-Light,Avenir" font-size="50.0" fill="#FEFFFF" transform="matrix(1.00, 0.00, -0.00, -1.00, 190.0, 214.3)"> </text><text xml:space="preserve" font-family="Avenir-Light,Avenir" font-size="50.0" fill="#FEFFFF" transform="matrix(1.00, 0.00, -0.00, -1.00, 203.0, 214.3)"> </text><text xml:space="preserve" font-family="Avenir-Light,Avenir" font-size="50.0" fill="#FEFFFF" transform="matrix(1.00, 0.00, -0.00, -1.00, 216.0, 214.3)"> </text><text xml:space="preserve" font-family="Avenir-Light,Avenir" font-size="50.0" fill="#FEFFFF" transform="matrix(1.00, 0.00, -0.00, -1.00, 229.0, 214.3)"> </text><text xml:space="preserve" font-family="Avenir-Light,Avenir" font-size="50.0" fill="#FEFFFF" transform="matrix(1.00, 0.00, -0.00, -1.00, 242.0, 214.3)"> </text><text xml:space="preserve" font-family="Avenir-Light,Avenir" font-size="50.0" fill="#FEFFFF" transform="matrix(1.00, 0.00, -0.00, -1.00, 255.0, 214.3)"> </text><text xml:space="preserve" font-family="Avenir-Light,Avenir" font-size="50.0" fill="#FEFFFF" transform="matrix(1.00, 0.00, -0.00, -1.00, 268.0, 214.3)"> </text><text xml:space="preserve" font-family="Avenir-Light,Avenir" font-size="50.0" fill="#FEFFFF" transform="matrix(1.00, 0.00, -0.00, -1.00, 281.0, 214.3)"> </text><text xml:space="preserve" font-family="Avenir-Light,Avenir" font-size="50.0" fill="#FEFFFF" transform="matrix(1.00, 0.00, -0.00, -1.00, 294.0, 214.3)"> </text><text xml:space="preserve" font-family="Avenir-Light,Avenir" font-size="50.0" fill="#FEFFFF" transform="matrix(1.00, 0.00, -0.00, -1.00, 307.0, 214.3)"> </text><text xml:space="preserve" font-family="Avenir-Light,Avenir" font-size="50.0" fill="#FEFFFF" transform="matrix(1.00, 0.00, -0.00, -1.00, 320.0, 214.3)"> </text><text xml:space="preserve" font-family="Avenir-Light,Avenir" font-size="50.0" fill="#FEFFFF" transform="matrix(1.00, 0.00, -0.00, -1.00, 333.0, 214.3)"> </text><text xml:space="preserve" font-family="Avenir-Light,Avenir" font-size="50.0" fill="#FEFFFF" transform="matrix(1.00, 0.00, -0.00, -1.00, 346.0, 214.3)"> </text><text xml:space="preserve" font-family="Avenir-Light,Avenir" font-size="50.0" fill="#FEFFFF" transform="matrix(1.00, 0.00, -0.00, -1.00, 359.0, 214.3)">@</text><text xml:space="preserve" font-family="Avenir-Light,Avenir" font-size="50.0" fill="#FEFFFF" transform="matrix(1.00, 0.00, -0.00, -1.00, 399.0, 214.3)">w</text><text xml:space="preserve" font-family="Avenir-Light,Avenir" font-size="50.0" fill="#FEFFFF" transform="matrix(1.00, 0.00, -0.00, -1.00, 434.2, 214.3)">i</text><text xml:space="preserve" font-family="Avenir-Light,Avenir" font-size="50.0" fill="#FEFFFF" transform="matrix(1.00, 0.00, -0.00, -1.00, 446.2, 214.3)">l</text><text xml:space="preserve" font-family="Avenir-Light,Avenir" font-size="50.0" fill="#FEFFFF" transform="matrix(1.00, 0.00, -0.00, -1.00, 458.2, 214.3)">l</text><text xml:space="preserve" font-family="Avenir-Light,Avenir" font-size="50.0" fill="#FEFFFF" transform="matrix(1.00, 0.00, -0.00, -1.00, 470.2, 214.3)">-</text><text xml:space="preserve" font-family="Avenir-Light,Avenir" font-size="50.0" fill="#FEFFFF" transform="matrix(1.00, 0.00, -0.00, -1.00, 486.9, 214.3)">s</text><text xml:space="preserve" font-family="Avenir-Light,Avenir" font-size="50.0" fill="#FEFFFF" transform="matrix(1.00, 0.00, -0.00, -1.00, 508.2, 214.3)">t</text><text xml:space="preserve" font-family="Avenir-Light,Avenir" font-size="50.0" fill="#FEFFFF" transform="matrix(1.00, 0.00, -0.00, -1.00, 524.8, 214.3)">e</text><text xml:space="preserve" font-family="Avenir-Light,Avenir" font-size="50.0" fill="#FEFFFF" transform="matrix(1.00, 0.00, -0.00, -1.00, 552.6, 214.3)">r</text><text xml:space="preserve" font-family="Avenir-Light,Avenir" font-size="50.0" fill="#FEFFFF" transform="matrix(1.00, 0.00, -0.00, -1.00, 569.3, 214.3)">l</text><text xml:space="preserve" font-family="Avenir-Light,Avenir" font-size="50.0" fill="#FEFFFF" transform="matrix(1.00, 0.00, -0.00, -1.00, 581.3, 214.3)">i</text><text xml:space="preserve" font-family="Avenir-Light,Avenir" font-size="50.0" fill="#FEFFFF" transform="matrix(1.00, 0.00, -0.00, -1.00, 593.3, 214.3)">n</text><text xml:space="preserve" font-family="Avenir-Light,Avenir" font-size="50.0" fill="#FEFFFF" transform="matrix(1.00, 0.00, -0.00, -1.00, 621.1, 214.3)">g</text><image xlink:href="../../58C1B73E-9D37-4369-BDF8-682EB51B0515/assets/25E8020AEBCCC279C0D1E51045445DFB.png" width="396.00" height="321.00" transform="matrix(0.46, 0.00, -0.00, -0.46, 158.0, 303.0)"></image></g></svg>