<?xml version="1.0" encoding="UTF-8" standalone="no"?><svg xmlns="http://www.w3.org/2000/svg" xmlns:xlink="http://www.w3.org/1999/xlink" clip-rule="evenodd" stroke-miterlimit="10" viewBox="0 0 1920 1080"><desc>SVG generated by Keynote</desc><defs></defs><g transform="matrix(1.00, 0.00, -0.00, -1.00, 0.0, 1080.0)"><path d="M 0.0 1080.0 L 1920.0 1080.0 L 1920.0 0.0 L 0.0 0.0 Z M 0.0 1080.0 " fill="#000000"></path><image xlink:href="../../D7AB1173-4E85-4BB3-B948-7DD35C761320/assets/A1103DCEFF45C73742E7B30FE6F2597F.png" width="600.00" height="450.00" transform="matrix(1.85, 0.00, -0.00, -1.85, 381.0, 836.7)"></image><image xlink:href="../../D7AB1173-4E85-4BB3-B948-7DD35C761320/assets/02DC7EC7A26C5105E2D682B922896D5B.png" width="1187.00" height="67.00" transform="matrix(1.00, 0.00, -0.00, -1.00, 104.0, 939.0)"></image><text xml:space="preserve" font-family="Avenir-Heavy,Avenir" font-weight="bold" font-size="86.0" fill="#FEFFFF" transform="matrix(1.00, 0.00, -0.00, -1.00, 101.0, 879.5)">R</text><text xml:space="preserve" font-family="Avenir-Heavy,Avenir" font-weight="bold" font-size="86.0" fill="#FEFFFF" transform="matrix(1.00, 0.00, -0.00, -1.00, 168.9, 879.5)">A</text><text xml:space="preserve" font-family="Avenir-Heavy,Avenir" font-weight="bold" font-size="86.0" fill="#FEFFFF" transform="matrix(1.00, 0.00, -0.00, -1.00, 244.8, 879.5)">I</text><text xml:space="preserve" font-family="Avenir-Heavy,Avenir" font-weight="bold" font-size="86.0" fill="#FEFFFF" transform="matrix(1.00, 0.00, -0.00, -1.00, 282.5, 879.5)">L</text><text xml:space="preserve" font-family="Avenir-Heavy,Avenir" font-weight="bold" font-size="86.0" fill="#FEFFFF" transform="matrix(1.00, 0.00, -0.00, -1.00, 340.9, 879.5)">S</text><text xml:space="preserve" font-family="Avenir-Heavy,Avenir" font-weight="bold" font-size="86.0" fill="#FEFFFF" transform="matrix(1.00, 0.00, -0.00, -1.00, 404.0, 879.5)"> </text><text xml:space="preserve" font-family="Avenir-Heavy,Avenir" font-weight="bold" font-size="86.0" fill="#FEFFFF" transform="matrix(1.00, 0.00, -0.00, -1.00, 443.2, 879.5)">C</text><text xml:space="preserve" font-family="Avenir-Heavy,Avenir" font-weight="bold" font-size="86.0" fill="#FEFFFF" transform="matrix(1.00, 0.00, -0.00, -1.00, 515.9, 879.5)">O</text><text xml:space="preserve" font-family="Avenir-Heavy,Avenir" font-weight="bold" font-size="86.0" fill="#FEFFFF" transform="matrix(1.00, 0.00, -0.00, -1.00, 601.3, 879.5)">M</text><text xml:space="preserve" font-family="Avenir-Heavy,Avenir" font-weight="bold" font-size="86.0" fill="#FEFFFF" transform="matrix(1.00, 0.00, -0.00, -1.00, 694.7, 879.5)">M</text><text xml:space="preserve" font-family="Avenir-Heavy,Avenir" font-weight="bold" font-size="86.0" fill="#FEFFFF" transform="matrix(1.00, 0.00, -0.00, -1.00, 788.1, 879.5)">A</text><text xml:space="preserve" font-family="Avenir-Heavy,Avenir" font-weight="bold" font-size="86.0" fill="#FEFFFF" transform="matrix(1.00, 0.00, -0.00, -1.00, 863.9, 879.5)">N</text><text xml:space="preserve" font-family="Avenir-Heavy,Avenir" font-weight="bold" font-size="86.0" fill="#FEFFFF" transform="matrix(1.00, 0.00, -0.00, -1.00, 946.1, 879.5)">D</text><text xml:space="preserve" font-family="Avenir-Heavy,Avenir" font-weight="bold" font-size="86.0" fill="#FEFFFF" transform="matrix(1.00, 0.00, -0.00, -1.00, 1025.2, 879.5)"> </text><text xml:space="preserve" font-family="Avenir-Heavy,Avenir" font-weight="bold" font-size="86.0" fill="#FEFFFF" transform="matrix(1.00, 0.00, -0.00, -1.00, 1064.4, 879.5)">L</text><text xml:space="preserve" font-family="Avenir-Heavy,Avenir" font-weight="bold" font-size="86.0" fill="#FEFFFF" transform="matrix(1.00, 0.00, -0.00, -1.00, 1122.8, 879.5)">I</text><text xml:space="preserve" font-family="Avenir-Heavy,Avenir" font-weight="bold" font-size="86.0" fill="#FEFFFF" transform="matrix(1.00, 0.00, -0.00, -1.00, 1160.4, 879.5)">N</text><text xml:space="preserve" font-family="Avenir-Heavy,Avenir" font-weight="bold" font-size="86.0" fill="#FEFFFF" transform="matrix(1.00, 0.00, -0.00, -1.00, 1242.6, 879.5)">E</text></g></svg>