<?xml version="1.0" encoding="UTF-8" standalone="no"?><svg xmlns="http://www.w3.org/2000/svg" xmlns:xlink="http://www.w3.org/1999/xlink" clip-rule="evenodd" stroke-miterlimit="10" viewBox="0 0 1920 1080"><desc>SVG generated by Keynote</desc><defs></defs><g transform="matrix(1.00, 0.00, -0.00, -1.00, 0.0, 1080.0)"><path d="M 0.0 1080.0 L 1920.0 1080.0 L 1920.0 0.0 L 0.0 0.0 Z M 0.0 1080.0 " fill="#000000"></path><g><clipPath id="clip0x6180004bc860"><path d="M 960.0 1080.0 L 1920.0 1080.0 L 1920.0 0.0 L 960.0 0.0 Z M 960.0 1080.0 "></path></clipPath><g clip-path="url(#clip0x6180004bc860)"><image xlink:href="../../15EB4E72-0A94-45CC-A251-D2BC72DC5258/assets/D5C8381E180CD7D8D6E73540D7B03ABF.jpeg" width="685.00" height="590.00" transform="matrix(1.83, 0.00, -0.00, -1.83, 813.0, 1080.0)"></image></g></g><image xlink:href="../../15EB4E72-0A94-45CC-A251-D2BC72DC5258/assets/FFC7BE79FCF8814BCE8937E25D01F266.png" width="536.00" height="56.00" transform="matrix(1.00, 0.00, -0.00, -1.00, 104.0, 986.0)"></image><text xml:space="preserve" font-family="Avenir-Heavy,Avenir" font-weight="bold" font-size="72.2" fill="#FEFFFF" transform="matrix(1.00, 0.00, -0.00, -1.00, 102.0, 936.4)">E</text><text xml:space="preserve" font-family="Avenir-Heavy,Avenir" font-weight="bold" font-size="72.2" fill="#FEFFFF" transform="matrix(1.00, 0.00, -0.00, -1.00, 157.7, 936.4)">X</text><text xml:space="preserve" font-family="Avenir-Heavy,Avenir" font-weight="bold" font-size="72.2" fill="#FEFFFF" transform="matrix(1.00, 0.00, -0.00, -1.00, 218.7, 936.4)">E</text><text xml:space="preserve" font-family="Avenir-Heavy,Avenir" font-weight="bold" font-size="72.2" fill="#FEFFFF" transform="matrix(1.00, 0.00, -0.00, -1.00, 274.4, 936.4)">R</text><text xml:space="preserve" font-family="Avenir-Heavy,Avenir" font-weight="bold" font-size="72.2" fill="#FEFFFF" transform="matrix(1.00, 0.00, -0.00, -1.00, 331.5, 936.4)">C</text><text xml:space="preserve" font-family="Avenir-Heavy,Avenir" font-weight="bold" font-size="72.2" fill="#FEFFFF" transform="matrix(1.00, 0.00, -0.00, -1.00, 392.5, 936.4)">I</text><text xml:space="preserve" font-family="Avenir-Heavy,Avenir" font-weight="bold" font-size="72.2" fill="#FEFFFF" transform="matrix(1.00, 0.00, -0.00, -1.00, 424.2, 936.4)">S</text><text xml:space="preserve" font-family="Avenir-Heavy,Avenir" font-weight="bold" font-size="72.2" fill="#FEFFFF" transform="matrix(1.00, 0.00, -0.00, -1.00, 477.2, 936.4)">E</text><text xml:space="preserve" font-family="Avenir-Heavy,Avenir" font-weight="bold" font-size="72.2" fill="#FEFFFF" transform="matrix(1.00, 0.00, -0.00, -1.00, 532.9, 936.4)"> </text><text xml:space="preserve" font-family="Avenir-Heavy,Avenir" font-weight="bold" font-size="72.2" fill="#FEFFFF" transform="matrix(1.00, 0.00, -0.00, -1.00, 565.9, 936.4)">3</text><text xml:space="preserve" font-family="Avenir-Heavy,Avenir" font-weight="bold" font-size="72.2" fill="#FEFFFF" transform="matrix(1.00, 0.00, -0.00, -1.00, 620.2, 936.4)">-</text><text xml:space="preserve" font-family="Avenir-Heavy,Avenir" font-weight="bold" font-size="72.2" fill="#FEFFFF" transform="matrix(1.00, 0.00, -0.00, -1.00, 654.5, 936.4)"> </text><image xlink:href="../../15EB4E72-0A94-45CC-A251-D2BC72DC5258/assets/8CBCC5F915320F680BC7F847EC7C5409.png" width="633.00" height="56.00" transform="matrix(1.00, 0.00, -0.00, -1.00, 104.0, 888.0)"></image><text xml:space="preserve" font-family="Avenir-Heavy,Avenir" font-weight="bold" font-size="72.2" fill="#FEFFFF" transform="matrix(1.00, 0.00, -0.00, -1.00, 102.0, 838.4)">H</text><text xml:space="preserve" font-family="Avenir-Heavy,Avenir" font-weight="bold" font-size="72.2" fill="#FEFFFF" transform="matrix(1.00, 0.00, -0.00, -1.00, 167.1, 838.4)">E</text><text xml:space="preserve" font-family="Avenir-Heavy,Avenir" font-weight="bold" font-size="72.2" fill="#FEFFFF" transform="matrix(1.00, 0.00, -0.00, -1.00, 222.8, 838.4)">L</text><text xml:space="preserve" font-family="Avenir-Heavy,Avenir" font-weight="bold" font-size="72.2" fill="#FEFFFF" transform="matrix(1.00, 0.00, -0.00, -1.00, 271.8, 838.4)">L</text><text xml:space="preserve" font-family="Avenir-Heavy,Avenir" font-weight="bold" font-size="72.2" fill="#FEFFFF" transform="matrix(1.00, 0.00, -0.00, -1.00, 320.9, 838.4)">O</text><text xml:space="preserve" font-family="Avenir-Heavy,Avenir" font-weight="bold" font-size="72.2" fill="#FEFFFF" transform="matrix(1.00, 0.00, -0.00, -1.00, 392.6, 838.4)"> </text><text xml:space="preserve" font-family="Avenir-Heavy,Avenir" font-weight="bold" font-size="72.2" fill="#FEFFFF" transform="matrix(1.00, 0.00, -0.00, -1.00, 425.6, 838.4)">W</text><text xml:space="preserve" font-family="Avenir-Heavy,Avenir" font-weight="bold" font-size="72.2" fill="#FEFFFF" transform="matrix(1.00, 0.00, -0.00, -1.00, 508.0, 838.4)">O</text><text xml:space="preserve" font-family="Avenir-Heavy,Avenir" font-weight="bold" font-size="72.2" fill="#FEFFFF" transform="matrix(1.00, 0.00, -0.00, -1.00, 579.7, 838.4)">R</text><text xml:space="preserve" font-family="Avenir-Heavy,Avenir" font-weight="bold" font-size="72.2" fill="#FEFFFF" transform="matrix(1.00, 0.00, -0.00, -1.00, 636.8, 838.4)">L</text><text xml:space="preserve" font-family="Avenir-Heavy,Avenir" font-weight="bold" font-size="72.2" fill="#FEFFFF" transform="matrix(1.00, 0.00, -0.00, -1.00, 685.8, 838.4)">D</text><text xml:space="preserve" font-family="Avenir-Light,Avenir" font-size="45.0" fill="#646363" transform="matrix(1.00, 0.00, -0.00, -1.00, 102.0, 520.0)">•</text><text xml:space="preserve" font-family="Avenir-Light,Avenir" font-size="50.0" fill="#FEFFFF" transform="matrix(1.00, 0.00, -0.00, -1.00, 152.0, 518.3)">F</text><text xml:space="preserve" font-family="Avenir-Light,Avenir" font-size="50.0" fill="#FEFFFF" transform="matrix(1.00, 0.00, -0.00, -1.00, 179.8, 518.3)">o</text><text xml:space="preserve" font-family="Avenir-Light,Avenir" font-size="50.0" fill="#FEFFFF" transform="matrix(1.00, 0.00, -0.00, -1.00, 209.5, 518.3)">l</text><text xml:space="preserve" font-family="Avenir-Light,Avenir" font-size="50.0" fill="#FEFFFF" transform="matrix(1.00, 0.00, -0.00, -1.00, 221.6, 518.3)">l</text><text xml:space="preserve" font-family="Avenir-Light,Avenir" font-size="50.0" fill="#FEFFFF" transform="matrix(1.00, 0.00, -0.00, -1.00, 233.6, 518.3)">o</text><text xml:space="preserve" font-family="Avenir-Light,Avenir" font-size="50.0" fill="#FEFFFF" transform="matrix(1.00, 0.00, -0.00, -1.00, 263.2, 518.3)">w</text><text xml:space="preserve" font-family="Avenir-Light,Avenir" font-size="50.0" fill="#FEFFFF" transform="matrix(1.00, 0.00, -0.00, -1.00, 298.4, 518.3)"> </text><text xml:space="preserve" font-family="Avenir-Light,Avenir" font-size="50.0" fill="#FEFFFF" transform="matrix(1.00, 0.00, -0.00, -1.00, 311.4, 518.3)">E</text><text xml:space="preserve" font-family="Avenir-Light,Avenir" font-size="50.0" fill="#FEFFFF" transform="matrix(1.00, 0.00, -0.00, -1.00, 341.1, 518.3)">x</text><text xml:space="preserve" font-family="Avenir-Light,Avenir" font-size="50.0" fill="#FEFFFF" transform="matrix(1.00, 0.00, -0.00, -1.00, 365.1, 518.3)">e</text><text xml:space="preserve" font-family="Avenir-Light,Avenir" font-size="50.0" fill="#FEFFFF" transform="matrix(1.00, 0.00, -0.00, -1.00, 393.0, 518.3)">r</text><text xml:space="preserve" font-family="Avenir-Light,Avenir" font-size="50.0" fill="#FEFFFF" transform="matrix(1.00, 0.00, -0.00, -1.00, 408.7, 518.3)">c</text><text xml:space="preserve" font-family="Avenir-Light,Avenir" font-size="50.0" fill="#FEFFFF" transform="matrix(1.00, 0.00, -0.00, -1.00, 432.8, 518.3)">i</text><text xml:space="preserve" font-family="Avenir-Light,Avenir" font-size="50.0" fill="#FEFFFF" transform="matrix(1.00, 0.00, -0.00, -1.00, 444.8, 518.3)">s</text><text xml:space="preserve" font-family="Avenir-Light,Avenir" font-size="50.0" fill="#FEFFFF" transform="matrix(1.00, 0.00, -0.00, -1.00, 466.1, 518.3)">e</text><text xml:space="preserve" font-family="Avenir-Light,Avenir" font-size="50.0" fill="#FEFFFF" transform="matrix(1.00, 0.00, -0.00, -1.00, 493.9, 518.3)"> </text><text xml:space="preserve" font-family="Avenir-Light,Avenir" font-size="50.0" fill="#FEFFFF" transform="matrix(1.00, 0.00, -0.00, -1.00, 506.9, 518.3)">3</text><text xml:space="preserve" font-family="Avenir-Light,Avenir" font-size="50.0" fill="#FEFFFF" transform="matrix(1.00, 0.00, -0.00, -1.00, 532.9, 518.3)"> </text><text xml:space="preserve" font-family="Avenir-Light,Avenir" font-size="50.0" fill="#FEFFFF" transform="matrix(1.00, 0.00, -0.00, -1.00, 545.9, 518.3)">R</text><text xml:space="preserve" font-family="Avenir-Light,Avenir" font-size="50.0" fill="#FEFFFF" transform="matrix(1.00, 0.00, -0.00, -1.00, 575.5, 518.3)">E</text><text xml:space="preserve" font-family="Avenir-Light,Avenir" font-size="50.0" fill="#FEFFFF" transform="matrix(1.00, 0.00, -0.00, -1.00, 605.2, 518.3)">A</text><text xml:space="preserve" font-family="Avenir-Light,Avenir" font-size="50.0" fill="#FEFFFF" transform="matrix(1.00, 0.00, -0.00, -1.00, 639.4, 518.3)">D</text><text xml:space="preserve" font-family="Avenir-Light,Avenir" font-size="50.0" fill="#FEFFFF" transform="matrix(1.00, 0.00, -0.00, -1.00, 676.5, 518.3)">M</text><text xml:space="preserve" font-family="Avenir-Light,Avenir" font-size="50.0" fill="#FEFFFF" transform="matrix(1.00, 0.00, -0.00, -1.00, 720.9, 518.3)">E</text><text xml:space="preserve" font-family="Avenir-Light,Avenir" font-size="50.0" fill="#FEFFFF" transform="matrix(1.00, 0.00, -0.00, -1.00, 750.6, 518.3)"> </text><text xml:space="preserve" font-family="Avenir-Light,Avenir" font-size="50.0" fill="#FEFFFF" transform="matrix(1.00, 0.00, -0.00, -1.00, 763.6, 518.3)">-</text><text xml:space="preserve" font-family="Avenir-Light,Avenir" font-size="50.0" fill="#FEFFFF" transform="matrix(1.00, 0.00, -0.00, -1.00, 780.2, 518.3)"> </text><text xml:space="preserve" font-family="Avenir-Light,Avenir" font-size="50.0" fill="#FEFFFF" transform="matrix(1.00, 0.00, -0.00, -1.00, 152.0, 450.3)">h</text><text xml:space="preserve" font-family="Avenir-Light,Avenir" font-size="50.0" fill="#FEFFFF" transform="matrix(1.00, 0.00, -0.00, -1.00, 179.8, 450.3)">t</text><text xml:space="preserve" font-family="Avenir-Light,Avenir" font-size="50.0" fill="#FEFFFF" transform="matrix(1.00, 0.00, -0.00, -1.00, 196.5, 450.3)">t</text><text xml:space="preserve" font-family="Avenir-Light,Avenir" font-size="50.0" fill="#FEFFFF" transform="matrix(1.00, 0.00, -0.00, -1.00, 213.2, 450.3)">p</text><text xml:space="preserve" font-family="Avenir-Light,Avenir" font-size="50.0" fill="#FEFFFF" transform="matrix(1.00, 0.00, -0.00, -1.00, 243.7, 450.3)">s</text><text xml:space="preserve" font-family="Avenir-Light,Avenir" font-size="50.0" fill="#FEFFFF" transform="matrix(1.00, 0.00, -0.00, -1.00, 265.0, 450.3)">:</text><text xml:space="preserve" font-family="Avenir-Light,Avenir" font-size="50.0" fill="#FEFFFF" transform="matrix(1.00, 0.00, -0.00, -1.00, 278.0, 450.3)">/</text><text xml:space="preserve" font-family="Avenir-Light,Avenir" font-size="50.0" fill="#FEFFFF" transform="matrix(1.00, 0.00, -0.00, -1.00, 296.5, 450.3)">/</text><text xml:space="preserve" font-family="Avenir-Light,Avenir" font-size="50.0" fill="#FEFFFF" transform="matrix(1.00, 0.00, -0.00, -1.00, 315.0, 450.3)">g</text><text xml:space="preserve" font-family="Avenir-Light,Avenir" font-size="50.0" fill="#FEFFFF" transform="matrix(1.00, 0.00, -0.00, -1.00, 345.6, 450.3)">i</text><text xml:space="preserve" font-family="Avenir-Light,Avenir" font-size="50.0" fill="#FEFFFF" transform="matrix(1.00, 0.00, -0.00, -1.00, 357.6, 450.3)">t</text><text xml:space="preserve" font-family="Avenir-Light,Avenir" font-size="50.0" fill="#FEFFFF" transform="matrix(1.00, 0.00, -0.00, -1.00, 374.2, 450.3)">h</text><text xml:space="preserve" font-family="Avenir-Light,Avenir" font-size="50.0" fill="#FEFFFF" transform="matrix(1.00, 0.00, -0.00, -1.00, 402.1, 450.3)">u</text><text xml:space="preserve" font-family="Avenir-Light,Avenir" font-size="50.0" fill="#FEFFFF" transform="matrix(1.00, 0.00, -0.00, -1.00, 429.9, 450.3)">b</text><text xml:space="preserve" font-family="Avenir-Light,Avenir" font-size="50.0" fill="#FEFFFF" transform="matrix(1.00, 0.00, -0.00, -1.00, 460.4, 450.3)">.</text><text xml:space="preserve" font-family="Avenir-Light,Avenir" font-size="50.0" fill="#FEFFFF" transform="matrix(1.00, 0.00, -0.00, -1.00, 473.4, 450.3)">c</text><text xml:space="preserve" font-family="Avenir-Light,Avenir" font-size="50.0" fill="#FEFFFF" transform="matrix(1.00, 0.00, -0.00, -1.00, 497.5, 450.3)">o</text><text xml:space="preserve" font-family="Avenir-Light,Avenir" font-size="50.0" fill="#FEFFFF" transform="matrix(1.00, 0.00, -0.00, -1.00, 527.2, 450.3)">m</text><text xml:space="preserve" font-family="Avenir-Light,Avenir" font-size="50.0" fill="#FEFFFF" transform="matrix(1.00, 0.00, -0.00, -1.00, 569.8, 450.3)">/</text><text xml:space="preserve" font-family="Avenir-Light,Avenir" font-size="50.0" fill="#FEFFFF" transform="matrix(1.00, 0.00, -0.00, -1.00, 588.2, 450.3)">w</text><text xml:space="preserve" font-family="Avenir-Light,Avenir" font-size="50.0" fill="#FEFFFF" transform="matrix(1.00, 0.00, -0.00, -1.00, 623.5, 450.3)">i</text><text xml:space="preserve" font-family="Avenir-Light,Avenir" font-size="50.0" fill="#FEFFFF" transform="matrix(1.00, 0.00, -0.00, -1.00, 635.5, 450.3)">l</text><text xml:space="preserve" font-family="Avenir-Light,Avenir" font-size="50.0" fill="#FEFFFF" transform="matrix(1.00, 0.00, -0.00, -1.00, 647.5, 450.3)">l</text><text xml:space="preserve" font-family="Avenir-Light,Avenir" font-size="50.0" fill="#FEFFFF" transform="matrix(1.00, 0.00, -0.00, -1.00, 659.5, 450.3)">-</text><g><clipPath id="clip0x600000ca2ee0"><path d="M 151.0 444.3 L 676.1 444.3 L 676.1 448.8 L 151.0 448.8 Z M 151.0 444.3 "></path></clipPath><g clip-path="url(#clip0x600000ca2ee0)"><path d="M 54.0 321.5 L 578.1 321.5 " fill="none" stroke="#FEFFFF" stroke-width="2.50" transform="matrix(1.00, 0.00, 0.00, -1.00, 98.0, 768.0)"></path></g></g><text xml:space="preserve" font-family="Avenir-Light,Avenir" font-size="50.0" fill="#FEFFFF" transform="matrix(1.00, 0.00, -0.00, -1.00, 152.0, 382.3)">s</text><text xml:space="preserve" font-family="Avenir-Light,Avenir" font-size="50.0" fill="#FEFFFF" transform="matrix(1.00, 0.00, -0.00, -1.00, 173.3, 382.3)">t</text><text xml:space="preserve" font-family="Avenir-Light,Avenir" font-size="50.0" fill="#FEFFFF" transform="matrix(1.00, 0.00, -0.00, -1.00, 189.9, 382.3)">e</text><text xml:space="preserve" font-family="Avenir-Light,Avenir" font-size="50.0" fill="#FEFFFF" transform="matrix(1.00, 0.00, -0.00, -1.00, 217.8, 382.3)">r</text><text xml:space="preserve" font-family="Avenir-Light,Avenir" font-size="50.0" fill="#FEFFFF" transform="matrix(1.00, 0.00, -0.00, -1.00, 234.4, 382.3)">l</text><text xml:space="preserve" font-family="Avenir-Light,Avenir" font-size="50.0" fill="#FEFFFF" transform="matrix(1.00, 0.00, -0.00, -1.00, 246.4, 382.3)">i</text><text xml:space="preserve" font-family="Avenir-Light,Avenir" font-size="50.0" fill="#FEFFFF" transform="matrix(1.00, 0.00, -0.00, -1.00, 258.4, 382.3)">n</text><text xml:space="preserve" font-family="Avenir-Light,Avenir" font-size="50.0" fill="#FEFFFF" transform="matrix(1.00, 0.00, -0.00, -1.00, 286.2, 382.3)">g</text><text xml:space="preserve" font-family="Avenir-Light,Avenir" font-size="50.0" fill="#FEFFFF" transform="matrix(1.00, 0.00, -0.00, -1.00, 316.8, 382.3)">/</text><text xml:space="preserve" font-family="Avenir-Light,Avenir" font-size="50.0" fill="#FEFFFF" transform="matrix(1.00, 0.00, -0.00, -1.00, 335.3, 382.3)">R</text><text xml:space="preserve" font-family="Avenir-Light,Avenir" font-size="50.0" fill="#FEFFFF" transform="matrix(1.00, 0.00, -0.00, -1.00, 365.0, 382.3)">A</text><text xml:space="preserve" font-family="Avenir-Light,Avenir" font-size="50.0" fill="#FEFFFF" transform="matrix(1.00, 0.00, -0.00, -1.00, 399.2, 382.3)">I</text><text xml:space="preserve" font-family="Avenir-Light,Avenir" font-size="50.0" fill="#FEFFFF" transform="matrix(1.00, 0.00, -0.00, -1.00, 412.2, 382.3)">L</text><text xml:space="preserve" font-family="Avenir-Light,Avenir" font-size="50.0" fill="#FEFFFF" transform="matrix(1.00, 0.00, -0.00, -1.00, 437.2, 382.3)">S</text><text xml:space="preserve" font-family="Avenir-Light,Avenir" font-size="50.0" fill="#FEFFFF" transform="matrix(1.00, 0.00, -0.00, -1.00, 465.0, 382.3)">-</text><text xml:space="preserve" font-family="Avenir-Light,Avenir" font-size="50.0" fill="#FEFFFF" transform="matrix(1.00, 0.00, -0.00, -1.00, 481.7, 382.3)">I</text><text xml:space="preserve" font-family="Avenir-Light,Avenir" font-size="50.0" fill="#FEFFFF" transform="matrix(1.00, 0.00, -0.00, -1.00, 494.7, 382.3)">n</text><text xml:space="preserve" font-family="Avenir-Light,Avenir" font-size="50.0" fill="#FEFFFF" transform="matrix(1.00, 0.00, -0.00, -1.00, 522.5, 382.3)">t</text><text xml:space="preserve" font-family="Avenir-Light,Avenir" font-size="50.0" fill="#FEFFFF" transform="matrix(1.00, 0.00, -0.00, -1.00, 539.1, 382.3)">r</text><text xml:space="preserve" font-family="Avenir-Light,Avenir" font-size="50.0" fill="#FEFFFF" transform="matrix(1.00, 0.00, -0.00, -1.00, 554.9, 382.3)">o</text><text xml:space="preserve" font-family="Avenir-Light,Avenir" font-size="50.0" fill="#FEFFFF" transform="matrix(1.00, 0.00, -0.00, -1.00, 584.5, 382.3)">/</text><text xml:space="preserve" font-family="Avenir-Light,Avenir" font-size="50.0" fill="#FEFFFF" transform="matrix(1.00, 0.00, -0.00, -1.00, 603.0, 382.3)">b</text><text xml:space="preserve" font-family="Avenir-Light,Avenir" font-size="50.0" fill="#FEFFFF" transform="matrix(1.00, 0.00, -0.00, -1.00, 633.6, 382.3)">l</text><text xml:space="preserve" font-family="Avenir-Light,Avenir" font-size="50.0" fill="#FEFFFF" transform="matrix(1.00, 0.00, -0.00, -1.00, 645.6, 382.3)">o</text><text xml:space="preserve" font-family="Avenir-Light,Avenir" font-size="50.0" fill="#FEFFFF" transform="matrix(1.00, 0.00, -0.00, -1.00, 675.3, 382.3)">b</text><text xml:space="preserve" font-family="Avenir-Light,Avenir" font-size="50.0" fill="#FEFFFF" transform="matrix(1.00, 0.00, -0.00, -1.00, 705.9, 382.3)">/</text><g><clipPath id="clip0x600000ca2280"><path d="M 151.0 376.3 L 724.4 376.3 L 724.4 380.8 L 151.0 380.8 Z M 151.0 376.3 "></path></clipPath><g clip-path="url(#clip0x600000ca2280)"><path d="M 54.0 389.5 L 626.4 389.5 " fill="none" stroke="#FEFFFF" stroke-width="2.50" transform="matrix(1.00, 0.00, 0.00, -1.00, 98.0, 768.0)"></path></g></g><text xml:space="preserve" font-family="Avenir-Light,Avenir" font-size="50.0" fill="#FEFFFF" transform="matrix(1.00, 0.00, -0.00, -1.00, 152.0, 314.3)">e</text><text xml:space="preserve" font-family="Avenir-Light,Avenir" font-size="50.0" fill="#FEFFFF" transform="matrix(1.00, 0.00, -0.00, -1.00, 179.8, 314.3)">x</text><text xml:space="preserve" font-family="Avenir-Light,Avenir" font-size="50.0" fill="#FEFFFF" transform="matrix(1.00, 0.00, -0.00, -1.00, 203.8, 314.3)">e</text><text xml:space="preserve" font-family="Avenir-Light,Avenir" font-size="50.0" fill="#FEFFFF" transform="matrix(1.00, 0.00, -0.00, -1.00, 231.7, 314.3)">r</text><text xml:space="preserve" font-family="Avenir-Light,Avenir" font-size="50.0" fill="#FEFFFF" transform="matrix(1.00, 0.00, -0.00, -1.00, 247.4, 314.3)">c</text><text xml:space="preserve" font-family="Avenir-Light,Avenir" font-size="50.0" fill="#FEFFFF" transform="matrix(1.00, 0.00, -0.00, -1.00, 271.4, 314.3)">i</text><text xml:space="preserve" font-family="Avenir-Light,Avenir" font-size="50.0" fill="#FEFFFF" transform="matrix(1.00, 0.00, -0.00, -1.00, 283.4, 314.3)">s</text><text xml:space="preserve" font-family="Avenir-Light,Avenir" font-size="50.0" fill="#FEFFFF" transform="matrix(1.00, 0.00, -0.00, -1.00, 304.8, 314.3)">e</text><text xml:space="preserve" font-family="Avenir-Light,Avenir" font-size="50.0" fill="#FEFFFF" transform="matrix(1.00, 0.00, -0.00, -1.00, 332.6, 314.3)">3</text><text xml:space="preserve" font-family="Avenir-Light,Avenir" font-size="50.0" fill="#FEFFFF" transform="matrix(1.00, 0.00, -0.00, -1.00, 358.6, 314.3)">/</text><text xml:space="preserve" font-family="Avenir-Light,Avenir" font-size="50.0" fill="#FEFFFF" transform="matrix(1.00, 0.00, -0.00, -1.00, 377.1, 314.3)">R</text><text xml:space="preserve" font-family="Avenir-Light,Avenir" font-size="50.0" fill="#FEFFFF" transform="matrix(1.00, 0.00, -0.00, -1.00, 406.7, 314.3)">E</text><text xml:space="preserve" font-family="Avenir-Light,Avenir" font-size="50.0" fill="#FEFFFF" transform="matrix(1.00, 0.00, -0.00, -1.00, 436.4, 314.3)">A</text><text xml:space="preserve" font-family="Avenir-Light,Avenir" font-size="50.0" fill="#FEFFFF" transform="matrix(1.00, 0.00, -0.00, -1.00, 470.6, 314.3)">D</text><text xml:space="preserve" font-family="Avenir-Light,Avenir" font-size="50.0" fill="#FEFFFF" transform="matrix(1.00, 0.00, -0.00, -1.00, 507.7, 314.3)">M</text><text xml:space="preserve" font-family="Avenir-Light,Avenir" font-size="50.0" fill="#FEFFFF" transform="matrix(1.00, 0.00, -0.00, -1.00, 552.1, 314.3)">E</text><text xml:space="preserve" font-family="Avenir-Light,Avenir" font-size="50.0" fill="#FEFFFF" transform="matrix(1.00, 0.00, -0.00, -1.00, 581.8, 314.3)">.</text><text xml:space="preserve" font-family="Avenir-Light,Avenir" font-size="50.0" fill="#FEFFFF" transform="matrix(1.00, 0.00, -0.00, -1.00, 594.8, 314.3)">m</text><text xml:space="preserve" font-family="Avenir-Light,Avenir" font-size="50.0" fill="#FEFFFF" transform="matrix(1.00, 0.00, -0.00, -1.00, 637.4, 314.3)">d</text><g><clipPath id="clip0x600000ca1800"><path d="M 151.0 308.3 L 667.9 308.3 L 667.9 312.8 L 151.0 312.8 Z M 151.0 308.3 "></path></clipPath><g clip-path="url(#clip0x600000ca1800)"><path d="M 54.0 457.5 L 569.9 457.5 " fill="none" stroke="#FEFFFF" stroke-width="2.50" transform="matrix(1.00, 0.00, 0.00, -1.00, 98.0, 768.0)"></path></g></g></g></svg>