<?xml version="1.0" encoding="UTF-8" standalone="no"?><svg xmlns="http://www.w3.org/2000/svg" xmlns:xlink="http://www.w3.org/1999/xlink" clip-rule="evenodd" stroke-miterlimit="10" viewBox="0 0 1920 1080"><desc>SVG generated by Keynote</desc><defs></defs><g transform="matrix(1.00, 0.00, -0.00, -1.00, 0.0, 1080.0)"><path d="M 0.0 1080.0 L 1920.0 1080.0 L 1920.0 0.0 L 0.0 0.0 Z M 0.0 1080.0 " fill="#000000"></path><image xlink:href="8D6EB6CF3B5DB53AC85FC3EED8075272.png" width="1960.00" height="573.00" transform="matrix(1.00, 0.00, -0.00, -1.00, -20.0, 832.5)" opacity="0.70"></image><g><clipPath id="clip0x608000aaa080"><path d="M 0.0 822.0 L 1920.0 822.0 L 1920.0 289.0 L 0.0 289.0 Z M 0.0 822.5 "></path></clipPath><g clip-path="url(#clip0x608000aaa080)"><image xlink:href="EFE87C738D83568F3B830749A754068C.jpeg" width="900.00" height="250.00" transform="matrix(2.13, 0.00, -0.00, -2.13, 0.0, 822.0)"></image></g></g><image xlink:href="DDBD980D7C35424627CA692554983096.png" width="400.00" height="67.00" transform="matrix(1.00, 0.00, -0.00, -1.00, 104.0, 939.0)"></image><text xml:space="preserve" font-family="Avenir-Heavy,Avenir" font-weight="bold" font-size="86.0" fill="#FEFFFF" transform="matrix(1.00, 0.00, -0.00, -1.00, 101.0, 879.5)">R</text><text xml:space="preserve" font-family="Avenir-Heavy,Avenir" font-weight="bold" font-size="86.0" fill="#FEFFFF" transform="matrix(1.00, 0.00, -0.00, -1.00, 168.9, 879.5)">O</text><text xml:space="preserve" font-family="Avenir-Heavy,Avenir" font-weight="bold" font-size="86.0" fill="#FEFFFF" transform="matrix(1.00, 0.00, -0.00, -1.00, 254.3, 879.5)">U</text><text xml:space="preserve" font-family="Avenir-Heavy,Avenir" font-weight="bold" font-size="86.0" fill="#FEFFFF" transform="matrix(1.00, 0.00, -0.00, -1.00, 330.2, 879.5)">T</text><text xml:space="preserve" font-family="Avenir-Heavy,Avenir" font-weight="bold" font-size="86.0" fill="#FEFFFF" transform="matrix(1.00, 0.00, -0.00, -1.00, 393.3, 879.5)">E</text><text xml:space="preserve" font-family="Avenir-Heavy,Avenir" font-weight="bold" font-size="86.0" fill="#FEFFFF" transform="matrix(1.00, 0.00, -0.00, -1.00, 459.6, 879.5)">S</text></g></svg>