<?xml version="1.0" encoding="UTF-8" standalone="no"?><svg xmlns="http://www.w3.org/2000/svg" xmlns:xlink="http://www.w3.org/1999/xlink" clip-rule="evenodd" stroke-miterlimit="10" viewBox="0 0 1920 1080"><desc>SVG generated by Keynote</desc><defs></defs><g transform="matrix(1.00, 0.00, -0.00, -1.00, 0.0, 1080.0)"><path d="M 0.0 1080.0 L 1920.0 1080.0 L 1920.0 0.0 L 0.0 0.0 Z M 0.0 1080.0 " fill="#000000"></path><text xml:space="preserve" font-family="Avenir-Light,Avenir" font-size="62.0" fill="#FEFFFF" transform="matrix(1.00, 0.00, -0.00, -1.00, 101.0, 945.7)">R</text><text xml:space="preserve" font-family="Avenir-Light,Avenir" font-size="62.0" fill="#FEFFFF" transform="matrix(1.00, 0.00, -0.00, -1.00, 147.7, 945.7)">E</text><text xml:space="preserve" font-family="Avenir-Light,Avenir" font-size="62.0" fill="#FEFFFF" transform="matrix(1.00, 0.00, -0.00, -1.00, 194.4, 945.7)">S</text><text xml:space="preserve" font-family="Avenir-Light,Avenir" font-size="62.0" fill="#FEFFFF" transform="matrix(1.00, 0.00, -0.00, -1.00, 238.8, 945.7)">O</text><text xml:space="preserve" font-family="Avenir-Light,Avenir" font-size="62.0" fill="#FEFFFF" transform="matrix(1.00, 0.00, -0.00, -1.00, 300.4, 945.7)">U</text><text xml:space="preserve" font-family="Avenir-Light,Avenir" font-size="62.0" fill="#FEFFFF" transform="matrix(1.00, 0.00, -0.00, -1.00, 352.7, 945.7)">R</text><text xml:space="preserve" font-family="Avenir-Light,Avenir" font-size="62.0" fill="#FEFFFF" transform="matrix(1.00, 0.00, -0.00, -1.00, 399.4, 945.7)">C</text><text xml:space="preserve" font-family="Avenir-Light,Avenir" font-size="62.0" fill="#FEFFFF" transform="matrix(1.00, 0.00, -0.00, -1.00, 453.0, 945.7)">E</text><text xml:space="preserve" font-family="Avenir-Light,Avenir" font-size="62.0" fill="#FEFFFF" transform="matrix(1.00, 0.00, -0.00, -1.00, 499.7, 945.7)">S</text><text xml:space="preserve" font-family="Avenir-Light,Avenir" font-size="45.0" fill="#646363" transform="matrix(1.00, 0.00, -0.00, -1.00, 101.0, 840.5)">•</text><text xml:space="preserve" font-family="Avenir-Light,Avenir" font-size="50.0" fill="#FEFFFF" transform="matrix(1.00, 0.00, -0.00, -1.00, 151.0, 838.8)">s</text><text xml:space="preserve" font-family="Avenir-Light,Avenir" font-size="50.0" fill="#FEFFFF" transform="matrix(1.00, 0.00, -0.00, -1.00, 172.3, 838.8)">t</text><text xml:space="preserve" font-family="Avenir-Light,Avenir" font-size="50.0" fill="#FEFFFF" transform="matrix(1.00, 0.00, -0.00, -1.00, 188.9, 838.8)">e</text><text xml:space="preserve" font-family="Avenir-Light,Avenir" font-size="50.0" fill="#FEFFFF" transform="matrix(1.00, 0.00, -0.00, -1.00, 216.8, 838.8)">r</text><text xml:space="preserve" font-family="Avenir-Light,Avenir" font-size="50.0" fill="#FEFFFF" transform="matrix(1.00, 0.00, -0.00, -1.00, 233.4, 838.8)">l</text><text xml:space="preserve" font-family="Avenir-Light,Avenir" font-size="50.0" fill="#FEFFFF" transform="matrix(1.00, 0.00, -0.00, -1.00, 245.4, 838.8)">i</text><text xml:space="preserve" font-family="Avenir-Light,Avenir" font-size="50.0" fill="#FEFFFF" transform="matrix(1.00, 0.00, -0.00, -1.00, 257.4, 838.8)">n</text><text xml:space="preserve" font-family="Avenir-Light,Avenir" font-size="50.0" fill="#FEFFFF" transform="matrix(1.00, 0.00, -0.00, -1.00, 285.2, 838.8)">g</text><text xml:space="preserve" font-family="Avenir-Light,Avenir" font-size="50.0" fill="#FEFFFF" transform="matrix(1.00, 0.00, -0.00, -1.00, 315.8, 838.8)">.</text><text xml:space="preserve" font-family="Avenir-Light,Avenir" font-size="50.0" fill="#FEFFFF" transform="matrix(1.00, 0.00, -0.00, -1.00, 328.8, 838.8)">c</text><text xml:space="preserve" font-family="Avenir-Light,Avenir" font-size="50.0" fill="#FEFFFF" transform="matrix(1.00, 0.00, -0.00, -1.00, 352.9, 838.8)">o</text><text xml:space="preserve" font-family="Avenir-Light,Avenir" font-size="50.0" fill="#FEFFFF" transform="matrix(1.00, 0.00, -0.00, -1.00, 382.6, 838.8)">d</text><text xml:space="preserve" font-family="Avenir-Light,Avenir" font-size="50.0" fill="#FEFFFF" transform="matrix(1.00, 0.00, -0.00, -1.00, 413.1, 838.8)">e</text><text xml:space="preserve" font-family="Avenir-Light,Avenir" font-size="50.0" fill="#FEFFFF" transform="matrix(1.00, 0.00, -0.00, -1.00, 440.9, 838.8)">s</text><text xml:space="preserve" font-family="Avenir-Light,Avenir" font-size="50.0" fill="#FEFFFF" transform="matrix(1.00, 0.00, -0.00, -1.00, 462.2, 838.8)"> </text><text xml:space="preserve" font-family="Avenir-Light,Avenir" font-size="45.0" fill="#646363" transform="matrix(1.00, 0.00, -0.00, -1.00, 101.0, 713.5)">•</text><text xml:space="preserve" font-family="Avenir-Light,Avenir" font-size="50.0" fill="#FEFFFF" transform="matrix(1.00, 0.00, -0.00, -1.00, 151.0, 711.8)">s</text><text xml:space="preserve" font-family="Avenir-Light,Avenir" font-size="50.0" fill="#FEFFFF" transform="matrix(1.00, 0.00, -0.00, -1.00, 172.3, 711.8)">l</text><text xml:space="preserve" font-family="Avenir-Light,Avenir" font-size="50.0" fill="#FEFFFF" transform="matrix(1.00, 0.00, -0.00, -1.00, 184.3, 711.8)">i</text><text xml:space="preserve" font-family="Avenir-Light,Avenir" font-size="50.0" fill="#FEFFFF" transform="matrix(1.00, 0.00, -0.00, -1.00, 196.3, 711.8)">d</text><text xml:space="preserve" font-family="Avenir-Light,Avenir" font-size="50.0" fill="#FEFFFF" transform="matrix(1.00, 0.00, -0.00, -1.00, 226.9, 711.8)">e</text><text xml:space="preserve" font-family="Avenir-Light,Avenir" font-size="50.0" fill="#FEFFFF" transform="matrix(1.00, 0.00, -0.00, -1.00, 254.7, 711.8)">s</text><text xml:space="preserve" font-family="Avenir-Light,Avenir" font-size="50.0" fill="#FEFFFF" transform="matrix(1.00, 0.00, -0.00, -1.00, 276.0, 711.8)"> </text><text xml:space="preserve" font-family="Avenir-Light,Avenir" font-size="50.0" fill="#FEFFFF" transform="matrix(1.00, 0.00, -0.00, -1.00, 289.0, 711.8)">w</text><text xml:space="preserve" font-family="Avenir-Light,Avenir" font-size="50.0" fill="#FEFFFF" transform="matrix(1.00, 0.00, -0.00, -1.00, 324.2, 711.8)">i</text><text xml:space="preserve" font-family="Avenir-Light,Avenir" font-size="50.0" fill="#FEFFFF" transform="matrix(1.00, 0.00, -0.00, -1.00, 336.2, 711.8)">t</text><text xml:space="preserve" font-family="Avenir-Light,Avenir" font-size="50.0" fill="#FEFFFF" transform="matrix(1.00, 0.00, -0.00, -1.00, 352.9, 711.8)">h</text><text xml:space="preserve" font-family="Avenir-Light,Avenir" font-size="50.0" fill="#FEFFFF" transform="matrix(1.00, 0.00, -0.00, -1.00, 380.7, 711.8)"> </text><text xml:space="preserve" font-family="Avenir-Light,Avenir" font-size="50.0" fill="#FEFFFF" transform="matrix(1.00, 0.00, -0.00, -1.00, 393.7, 711.8)">n</text><text xml:space="preserve" font-family="Avenir-Light,Avenir" font-size="50.0" fill="#FEFFFF" transform="matrix(1.00, 0.00, -0.00, -1.00, 421.5, 711.8)">o</text><text xml:space="preserve" font-family="Avenir-Light,Avenir" font-size="50.0" fill="#FEFFFF" transform="matrix(1.00, 0.00, -0.00, -1.00, 451.2, 711.8)">t</text><text xml:space="preserve" font-family="Avenir-Light,Avenir" font-size="50.0" fill="#FEFFFF" transform="matrix(1.00, 0.00, -0.00, -1.00, 467.8, 711.8)">e</text><text xml:space="preserve" font-family="Avenir-Light,Avenir" font-size="50.0" fill="#FEFFFF" transform="matrix(1.00, 0.00, -0.00, -1.00, 495.6, 711.8)">s</text><text xml:space="preserve" font-family="Avenir-Light,Avenir" font-size="50.0" fill="#FEFFFF" transform="matrix(1.00, 0.00, -0.00, -1.00, 517.0, 711.8)">:</text><text xml:space="preserve" font-family="Avenir-Light,Avenir" font-size="50.0" fill="#FEFFFF" transform="matrix(1.00, 0.00, -0.00, -1.00, 530.0, 711.8)"> </text><text xml:space="preserve" font-family="Avenir-Light,Avenir" font-size="50.0" fill="#FEFFFF" transform="matrix(1.00, 0.00, -0.00, -1.00, 543.0, 711.8)">h</text><text xml:space="preserve" font-family="Avenir-Light,Avenir" font-size="50.0" fill="#FEFFFF" transform="matrix(1.00, 0.00, -0.00, -1.00, 570.8, 711.8)">t</text><text xml:space="preserve" font-family="Avenir-Light,Avenir" font-size="50.0" fill="#FEFFFF" transform="matrix(1.00, 0.00, -0.00, -1.00, 587.5, 711.8)">t</text><text xml:space="preserve" font-family="Avenir-Light,Avenir" font-size="50.0" fill="#FEFFFF" transform="matrix(1.00, 0.00, -0.00, -1.00, 604.1, 711.8)">p</text><text xml:space="preserve" font-family="Avenir-Light,Avenir" font-size="50.0" fill="#FEFFFF" transform="matrix(1.00, 0.00, -0.00, -1.00, 634.6, 711.8)">:</text><text xml:space="preserve" font-family="Avenir-Light,Avenir" font-size="50.0" fill="#FEFFFF" transform="matrix(1.00, 0.00, -0.00, -1.00, 647.6, 711.8)">/</text><text xml:space="preserve" font-family="Avenir-Light,Avenir" font-size="50.0" fill="#FEFFFF" transform="matrix(1.00, 0.00, -0.00, -1.00, 666.1, 711.8)">/</text><text xml:space="preserve" font-family="Avenir-Light,Avenir" font-size="50.0" fill="#FEFFFF" transform="matrix(1.00, 0.00, -0.00, -1.00, 684.6, 711.8)">w</text><text xml:space="preserve" font-family="Avenir-Light,Avenir" font-size="50.0" fill="#FEFFFF" transform="matrix(1.00, 0.00, -0.00, -1.00, 719.9, 711.8)">i</text><text xml:space="preserve" font-family="Avenir-Light,Avenir" font-size="50.0" fill="#FEFFFF" transform="matrix(1.00, 0.00, -0.00, -1.00, 731.9, 711.8)">l</text><text xml:space="preserve" font-family="Avenir-Light,Avenir" font-size="50.0" fill="#FEFFFF" transform="matrix(1.00, 0.00, -0.00, -1.00, 743.9, 711.8)">l</text><text xml:space="preserve" font-family="Avenir-Light,Avenir" font-size="50.0" fill="#FEFFFF" transform="matrix(1.00, 0.00, -0.00, -1.00, 755.9, 711.8)">-</text><text xml:space="preserve" font-family="Avenir-Light,Avenir" font-size="50.0" fill="#FEFFFF" transform="matrix(1.00, 0.00, -0.00, -1.00, 772.5, 711.8)">s</text><text xml:space="preserve" font-family="Avenir-Light,Avenir" font-size="50.0" fill="#FEFFFF" transform="matrix(1.00, 0.00, -0.00, -1.00, 793.8, 711.8)">t</text><text xml:space="preserve" font-family="Avenir-Light,Avenir" font-size="50.0" fill="#FEFFFF" transform="matrix(1.00, 0.00, -0.00, -1.00, 810.5, 711.8)">e</text><text xml:space="preserve" font-family="Avenir-Light,Avenir" font-size="50.0" fill="#FEFFFF" transform="matrix(1.00, 0.00, -0.00, -1.00, 838.3, 711.8)">r</text><text xml:space="preserve" font-family="Avenir-Light,Avenir" font-size="50.0" fill="#FEFFFF" transform="matrix(1.00, 0.00, -0.00, -1.00, 854.9, 711.8)">l</text><text xml:space="preserve" font-family="Avenir-Light,Avenir" font-size="50.0" fill="#FEFFFF" transform="matrix(1.00, 0.00, -0.00, -1.00, 867.0, 711.8)">i</text><text xml:space="preserve" font-family="Avenir-Light,Avenir" font-size="50.0" fill="#FEFFFF" transform="matrix(1.00, 0.00, -0.00, -1.00, 879.0, 711.8)">n</text><text xml:space="preserve" font-family="Avenir-Light,Avenir" font-size="50.0" fill="#FEFFFF" transform="matrix(1.00, 0.00, -0.00, -1.00, 906.8, 711.8)">g</text><text xml:space="preserve" font-family="Avenir-Light,Avenir" font-size="50.0" fill="#FEFFFF" transform="matrix(1.00, 0.00, -0.00, -1.00, 937.3, 711.8)">.</text><text xml:space="preserve" font-family="Avenir-Light,Avenir" font-size="50.0" fill="#FEFFFF" transform="matrix(1.00, 0.00, -0.00, -1.00, 950.3, 711.8)">g</text><text xml:space="preserve" font-family="Avenir-Light,Avenir" font-size="50.0" fill="#FEFFFF" transform="matrix(1.00, 0.00, -0.00, -1.00, 980.9, 711.8)">i</text><text xml:space="preserve" font-family="Avenir-Light,Avenir" font-size="50.0" fill="#FEFFFF" transform="matrix(1.00, 0.00, -0.00, -1.00, 992.9, 711.8)">t</text><text xml:space="preserve" font-family="Avenir-Light,Avenir" font-size="50.0" fill="#FEFFFF" transform="matrix(1.00, 0.00, -0.00, -1.00, 1009.6, 711.8)">h</text><text xml:space="preserve" font-family="Avenir-Light,Avenir" font-size="50.0" fill="#FEFFFF" transform="matrix(1.00, 0.00, -0.00, -1.00, 1037.4, 711.8)">u</text><text xml:space="preserve" font-family="Avenir-Light,Avenir" font-size="50.0" fill="#FEFFFF" transform="matrix(1.00, 0.00, -0.00, -1.00, 1065.2, 711.8)">b</text><text xml:space="preserve" font-family="Avenir-Light,Avenir" font-size="50.0" fill="#FEFFFF" transform="matrix(1.00, 0.00, -0.00, -1.00, 1095.7, 711.8)">.</text><text xml:space="preserve" font-family="Avenir-Light,Avenir" font-size="50.0" fill="#FEFFFF" transform="matrix(1.00, 0.00, -0.00, -1.00, 1108.7, 711.8)">i</text><text xml:space="preserve" font-family="Avenir-Light,Avenir" font-size="50.0" fill="#FEFFFF" transform="matrix(1.00, 0.00, -0.00, -1.00, 1120.7, 711.8)">o</text><text xml:space="preserve" font-family="Avenir-Light,Avenir" font-size="50.0" fill="#FEFFFF" transform="matrix(1.00, 0.00, -0.00, -1.00, 1150.4, 711.8)">/</text><text xml:space="preserve" font-family="Avenir-Light,Avenir" font-size="50.0" fill="#FEFFFF" transform="matrix(1.00, 0.00, -0.00, -1.00, 1168.9, 711.8)">R</text><text xml:space="preserve" font-family="Avenir-Light,Avenir" font-size="50.0" fill="#FEFFFF" transform="matrix(1.00, 0.00, -0.00, -1.00, 1198.6, 711.8)">a</text><text xml:space="preserve" font-family="Avenir-Light,Avenir" font-size="50.0" fill="#FEFFFF" transform="matrix(1.00, 0.00, -0.00, -1.00, 1224.5, 711.8)">i</text><text xml:space="preserve" font-family="Avenir-Light,Avenir" font-size="50.0" fill="#FEFFFF" transform="matrix(1.00, 0.00, -0.00, -1.00, 1236.5, 711.8)">l</text><text xml:space="preserve" font-family="Avenir-Light,Avenir" font-size="50.0" fill="#FEFFFF" transform="matrix(1.00, 0.00, -0.00, -1.00, 1248.5, 711.8)">s</text><text xml:space="preserve" font-family="Avenir-Light,Avenir" font-size="50.0" fill="#FEFFFF" transform="matrix(1.00, 0.00, -0.00, -1.00, 1269.8, 711.8)">-</text><text xml:space="preserve" font-family="Avenir-Light,Avenir" font-size="50.0" fill="#FEFFFF" transform="matrix(1.00, 0.00, -0.00, -1.00, 1286.5, 711.8)">I</text><text xml:space="preserve" font-family="Avenir-Light,Avenir" font-size="50.0" fill="#FEFFFF" transform="matrix(1.00, 0.00, -0.00, -1.00, 1299.5, 711.8)">n</text><text xml:space="preserve" font-family="Avenir-Light,Avenir" font-size="50.0" fill="#FEFFFF" transform="matrix(1.00, 0.00, -0.00, -1.00, 1327.3, 711.8)">t</text><text xml:space="preserve" font-family="Avenir-Light,Avenir" font-size="50.0" fill="#FEFFFF" transform="matrix(1.00, 0.00, -0.00, -1.00, 1343.9, 711.8)">r</text><text xml:space="preserve" font-family="Avenir-Light,Avenir" font-size="50.0" fill="#FEFFFF" transform="matrix(1.00, 0.00, -0.00, -1.00, 1359.7, 711.8)">o</text><text xml:space="preserve" font-family="Avenir-Light,Avenir" font-size="50.0" fill="#FEFFFF" transform="matrix(1.00, 0.00, -0.00, -1.00, 1389.4, 711.8)">-</text><text xml:space="preserve" font-family="Avenir-Light,Avenir" font-size="50.0" fill="#FEFFFF" transform="matrix(1.00, 0.00, -0.00, -1.00, 1406.0, 711.8)">S</text><text xml:space="preserve" font-family="Avenir-Light,Avenir" font-size="50.0" fill="#FEFFFF" transform="matrix(1.00, 0.00, -0.00, -1.00, 1433.8, 711.8)">l</text><text xml:space="preserve" font-family="Avenir-Light,Avenir" font-size="50.0" fill="#FEFFFF" transform="matrix(1.00, 0.00, -0.00, -1.00, 1445.9, 711.8)">i</text><text xml:space="preserve" font-family="Avenir-Light,Avenir" font-size="50.0" fill="#FEFFFF" transform="matrix(1.00, 0.00, -0.00, -1.00, 1457.9, 711.8)">d</text><text xml:space="preserve" font-family="Avenir-Light,Avenir" font-size="50.0" fill="#FEFFFF" transform="matrix(1.00, 0.00, -0.00, -1.00, 1488.4, 711.8)">e</text><text xml:space="preserve" font-family="Avenir-Light,Avenir" font-size="50.0" fill="#FEFFFF" transform="matrix(1.00, 0.00, -0.00, -1.00, 1516.2, 711.8)">s</text><text xml:space="preserve" font-family="Avenir-Light,Avenir" font-size="50.0" fill="#FEFFFF" transform="matrix(1.00, 0.00, -0.00, -1.00, 1537.5, 711.8)">/</text><text xml:space="preserve" font-family="Avenir-Light,Avenir" font-size="50.0" fill="#FEFFFF" transform="matrix(1.00, 0.00, -0.00, -1.00, 151.0, 643.8)">s</text><text xml:space="preserve" font-family="Avenir-Light,Avenir" font-size="50.0" fill="#FEFFFF" transform="matrix(1.00, 0.00, -0.00, -1.00, 172.3, 643.8)">l</text><text xml:space="preserve" font-family="Avenir-Light,Avenir" font-size="50.0" fill="#FEFFFF" transform="matrix(1.00, 0.00, -0.00, -1.00, 184.3, 643.8)">i</text><text xml:space="preserve" font-family="Avenir-Light,Avenir" font-size="50.0" fill="#FEFFFF" transform="matrix(1.00, 0.00, -0.00, -1.00, 196.3, 643.8)">d</text><text xml:space="preserve" font-family="Avenir-Light,Avenir" font-size="50.0" fill="#FEFFFF" transform="matrix(1.00, 0.00, -0.00, -1.00, 226.9, 643.8)">e</text><text xml:space="preserve" font-family="Avenir-Light,Avenir" font-size="50.0" fill="#FEFFFF" transform="matrix(1.00, 0.00, -0.00, -1.00, 254.7, 643.8)">s</text><text xml:space="preserve" font-family="Avenir-Light,Avenir" font-size="50.0" fill="#FEFFFF" transform="matrix(1.00, 0.00, -0.00, -1.00, 276.0, 643.8)">_</text><text xml:space="preserve" font-family="Avenir-Light,Avenir" font-size="50.0" fill="#FEFFFF" transform="matrix(1.00, 0.00, -0.00, -1.00, 301.0, 643.8)">w</text><text xml:space="preserve" font-family="Avenir-Light,Avenir" font-size="50.0" fill="#FEFFFF" transform="matrix(1.00, 0.00, -0.00, -1.00, 336.2, 643.8)">i</text><text xml:space="preserve" font-family="Avenir-Light,Avenir" font-size="50.0" fill="#FEFFFF" transform="matrix(1.00, 0.00, -0.00, -1.00, 348.2, 643.8)">t</text><text xml:space="preserve" font-family="Avenir-Light,Avenir" font-size="50.0" fill="#FEFFFF" transform="matrix(1.00, 0.00, -0.00, -1.00, 364.9, 643.8)">h</text><text xml:space="preserve" font-family="Avenir-Light,Avenir" font-size="50.0" fill="#FEFFFF" transform="matrix(1.00, 0.00, -0.00, -1.00, 392.7, 643.8)">_</text><text xml:space="preserve" font-family="Avenir-Light,Avenir" font-size="50.0" fill="#FEFFFF" transform="matrix(1.00, 0.00, -0.00, -1.00, 417.7, 643.8)">n</text><text xml:space="preserve" font-family="Avenir-Light,Avenir" font-size="50.0" fill="#FEFFFF" transform="matrix(1.00, 0.00, -0.00, -1.00, 445.5, 643.8)">o</text><text xml:space="preserve" font-family="Avenir-Light,Avenir" font-size="50.0" fill="#FEFFFF" transform="matrix(1.00, 0.00, -0.00, -1.00, 475.2, 643.8)">t</text><text xml:space="preserve" font-family="Avenir-Light,Avenir" font-size="50.0" fill="#FEFFFF" transform="matrix(1.00, 0.00, -0.00, -1.00, 491.9, 643.8)">e</text><text xml:space="preserve" font-family="Avenir-Light,Avenir" font-size="50.0" fill="#FEFFFF" transform="matrix(1.00, 0.00, -0.00, -1.00, 519.7, 643.8)">s</text><text xml:space="preserve" font-family="Avenir-Light,Avenir" font-size="50.0" fill="#FEFFFF" transform="matrix(1.00, 0.00, -0.00, -1.00, 541.0, 643.8)">.</text><text xml:space="preserve" font-family="Avenir-Light,Avenir" font-size="50.0" fill="#FEFFFF" transform="matrix(1.00, 0.00, -0.00, -1.00, 554.0, 643.8)">p</text><text xml:space="preserve" font-family="Avenir-Light,Avenir" font-size="50.0" fill="#FEFFFF" transform="matrix(1.00, 0.00, -0.00, -1.00, 584.5, 643.8)">d</text><text xml:space="preserve" font-family="Avenir-Light,Avenir" font-size="50.0" fill="#FEFFFF" transform="matrix(1.00, 0.00, -0.00, -1.00, 615.1, 643.8)">f</text><text xml:space="preserve" font-family="Avenir-Light,Avenir" font-size="50.0" fill="#FEFFFF" transform="matrix(1.00, 0.00, -0.00, -1.00, 629.9, 643.8)"> </text><text xml:space="preserve" font-family="Avenir-Light,Avenir" font-size="45.0" fill="#646363" transform="matrix(1.00, 0.00, -0.00, -1.00, 101.0, 518.5)">•</text><text xml:space="preserve" font-family="Avenir-Light,Avenir" font-size="50.0" fill="#FEFFFF" transform="matrix(1.00, 0.00, -0.00, -1.00, 151.0, 516.8)">h</text><text xml:space="preserve" font-family="Avenir-Light,Avenir" font-size="50.0" fill="#FEFFFF" transform="matrix(1.00, 0.00, -0.00, -1.00, 178.8, 516.8)">t</text><text xml:space="preserve" font-family="Avenir-Light,Avenir" font-size="50.0" fill="#FEFFFF" transform="matrix(1.00, 0.00, -0.00, -1.00, 195.5, 516.8)">t</text><text xml:space="preserve" font-family="Avenir-Light,Avenir" font-size="50.0" fill="#FEFFFF" transform="matrix(1.00, 0.00, -0.00, -1.00, 212.2, 516.8)">p</text><text xml:space="preserve" font-family="Avenir-Light,Avenir" font-size="50.0" fill="#FEFFFF" transform="matrix(1.00, 0.00, -0.00, -1.00, 242.7, 516.8)">:</text><text xml:space="preserve" font-family="Avenir-Light,Avenir" font-size="50.0" fill="#FEFFFF" transform="matrix(1.00, 0.00, -0.00, -1.00, 255.7, 516.8)">/</text><text xml:space="preserve" font-family="Avenir-Light,Avenir" font-size="50.0" fill="#FEFFFF" transform="matrix(1.00, 0.00, -0.00, -1.00, 274.2, 516.8)">/</text><text xml:space="preserve" font-family="Avenir-Light,Avenir" font-size="50.0" fill="#FEFFFF" transform="matrix(1.00, 0.00, -0.00, -1.00, 292.7, 516.8)">g</text><text xml:space="preserve" font-family="Avenir-Light,Avenir" font-size="50.0" fill="#FEFFFF" transform="matrix(1.00, 0.00, -0.00, -1.00, 323.2, 516.8)">u</text><text xml:space="preserve" font-family="Avenir-Light,Avenir" font-size="50.0" fill="#FEFFFF" transform="matrix(1.00, 0.00, -0.00, -1.00, 351.1, 516.8)">i</text><text xml:space="preserve" font-family="Avenir-Light,Avenir" font-size="50.0" fill="#FEFFFF" transform="matrix(1.00, 0.00, -0.00, -1.00, 363.1, 516.8)">d</text><text xml:space="preserve" font-family="Avenir-Light,Avenir" font-size="50.0" fill="#FEFFFF" transform="matrix(1.00, 0.00, -0.00, -1.00, 393.6, 516.8)">e</text><text xml:space="preserve" font-family="Avenir-Light,Avenir" font-size="50.0" fill="#FEFFFF" transform="matrix(1.00, 0.00, -0.00, -1.00, 421.4, 516.8)">s</text><text xml:space="preserve" font-family="Avenir-Light,Avenir" font-size="50.0" fill="#FEFFFF" transform="matrix(1.00, 0.00, -0.00, -1.00, 442.7, 516.8)">.</text><text xml:space="preserve" font-family="Avenir-Light,Avenir" font-size="50.0" fill="#FEFFFF" transform="matrix(1.00, 0.00, -0.00, -1.00, 455.7, 516.8)">r</text><text xml:space="preserve" font-family="Avenir-Light,Avenir" font-size="50.0" fill="#FEFFFF" transform="matrix(1.00, 0.00, -0.00, -1.00, 472.4, 516.8)">u</text><text xml:space="preserve" font-family="Avenir-Light,Avenir" font-size="50.0" fill="#FEFFFF" transform="matrix(1.00, 0.00, -0.00, -1.00, 500.2, 516.8)">b</text><text xml:space="preserve" font-family="Avenir-Light,Avenir" font-size="50.0" fill="#FEFFFF" transform="matrix(1.00, 0.00, -0.00, -1.00, 530.7, 516.8)">y</text><text xml:space="preserve" font-family="Avenir-Light,Avenir" font-size="50.0" fill="#FEFFFF" transform="matrix(1.00, 0.00, -0.00, -1.00, 553.9, 516.8)">o</text><text xml:space="preserve" font-family="Avenir-Light,Avenir" font-size="50.0" fill="#FEFFFF" transform="matrix(1.00, 0.00, -0.00, -1.00, 583.5, 516.8)">n</text><text xml:space="preserve" font-family="Avenir-Light,Avenir" font-size="50.0" fill="#FEFFFF" transform="matrix(1.00, 0.00, -0.00, -1.00, 611.4, 516.8)">r</text><text xml:space="preserve" font-family="Avenir-Light,Avenir" font-size="50.0" fill="#FEFFFF" transform="matrix(1.00, 0.00, -0.00, -1.00, 628.0, 516.8)">a</text><text xml:space="preserve" font-family="Avenir-Light,Avenir" font-size="50.0" fill="#FEFFFF" transform="matrix(1.00, 0.00, -0.00, -1.00, 654.0, 516.8)">i</text><text xml:space="preserve" font-family="Avenir-Light,Avenir" font-size="50.0" fill="#FEFFFF" transform="matrix(1.00, 0.00, -0.00, -1.00, 666.0, 516.8)">l</text><text xml:space="preserve" font-family="Avenir-Light,Avenir" font-size="50.0" fill="#FEFFFF" transform="matrix(1.00, 0.00, -0.00, -1.00, 678.0, 516.8)">s</text><text xml:space="preserve" font-family="Avenir-Light,Avenir" font-size="50.0" fill="#FEFFFF" transform="matrix(1.00, 0.00, -0.00, -1.00, 699.2, 516.8)">.</text><text xml:space="preserve" font-family="Avenir-Light,Avenir" font-size="50.0" fill="#FEFFFF" transform="matrix(1.00, 0.00, -0.00, -1.00, 712.2, 516.8)">o</text><text xml:space="preserve" font-family="Avenir-Light,Avenir" font-size="50.0" fill="#FEFFFF" transform="matrix(1.00, 0.00, -0.00, -1.00, 742.0, 516.8)">r</text><text xml:space="preserve" font-family="Avenir-Light,Avenir" font-size="50.0" fill="#FEFFFF" transform="matrix(1.00, 0.00, -0.00, -1.00, 757.7, 516.8)">g</text><text xml:space="preserve" font-family="Avenir-Light,Avenir" font-size="50.0" fill="#FEFFFF" transform="matrix(1.00, 0.00, -0.00, -1.00, 788.2, 516.8)"> </text><g><clipPath id="clip0x6100006a7920"><path d="M 150.0 510.8 L 788.2 510.8 L 788.2 515.3 L 150.0 515.3 Z M 150.0 510.8 "></path></clipPath><g clip-path="url(#clip0x6100006a7920)"><path d="M 54.0 381.5 L 691.2 381.5 " fill="none" stroke="#FEFFFF" stroke-width="2.50" transform="matrix(1.00, 0.00, 0.00, -1.00, 97.0, 894.5)"></path></g></g><text xml:space="preserve" font-family="Avenir-Light,Avenir" font-size="45.0" fill="#646363" transform="matrix(1.00, 0.00, -0.00, -1.00, 101.0, 391.5)">•</text><text xml:space="preserve" font-family="Avenir-Light,Avenir" font-size="50.0" fill="#FEFFFF" transform="matrix(1.00, 0.00, -0.00, -1.00, 151.0, 389.8)">h</text><text xml:space="preserve" font-family="Avenir-Light,Avenir" font-size="50.0" fill="#FEFFFF" transform="matrix(1.00, 0.00, -0.00, -1.00, 178.8, 389.8)">t</text><text xml:space="preserve" font-family="Avenir-Light,Avenir" font-size="50.0" fill="#FEFFFF" transform="matrix(1.00, 0.00, -0.00, -1.00, 195.5, 389.8)">t</text><text xml:space="preserve" font-family="Avenir-Light,Avenir" font-size="50.0" fill="#FEFFFF" transform="matrix(1.00, 0.00, -0.00, -1.00, 212.2, 389.8)">p</text><text xml:space="preserve" font-family="Avenir-Light,Avenir" font-size="50.0" fill="#FEFFFF" transform="matrix(1.00, 0.00, -0.00, -1.00, 242.7, 389.8)">:</text><text xml:space="preserve" font-family="Avenir-Light,Avenir" font-size="50.0" fill="#FEFFFF" transform="matrix(1.00, 0.00, -0.00, -1.00, 255.7, 389.8)">/</text><text xml:space="preserve" font-family="Avenir-Light,Avenir" font-size="50.0" fill="#FEFFFF" transform="matrix(1.00, 0.00, -0.00, -1.00, 274.2, 389.8)">/</text><text xml:space="preserve" font-family="Avenir-Light,Avenir" font-size="50.0" fill="#FEFFFF" transform="matrix(1.00, 0.00, -0.00, -1.00, 292.7, 389.8)">r</text><text xml:space="preserve" font-family="Avenir-Light,Avenir" font-size="50.0" fill="#FEFFFF" transform="matrix(1.00, 0.00, -0.00, -1.00, 309.4, 389.8)">u</text><text xml:space="preserve" font-family="Avenir-Light,Avenir" font-size="50.0" fill="#FEFFFF" transform="matrix(1.00, 0.00, -0.00, -1.00, 337.1, 389.8)">b</text><text xml:space="preserve" font-family="Avenir-Light,Avenir" font-size="50.0" fill="#FEFFFF" transform="matrix(1.00, 0.00, -0.00, -1.00, 367.7, 389.8)">y</text><text xml:space="preserve" font-family="Avenir-Light,Avenir" font-size="50.0" fill="#FEFFFF" transform="matrix(1.00, 0.00, -0.00, -1.00, 390.9, 389.8)">o</text><text xml:space="preserve" font-family="Avenir-Light,Avenir" font-size="50.0" fill="#FEFFFF" transform="matrix(1.00, 0.00, -0.00, -1.00, 420.6, 389.8)">n</text><text xml:space="preserve" font-family="Avenir-Light,Avenir" font-size="50.0" fill="#FEFFFF" transform="matrix(1.00, 0.00, -0.00, -1.00, 448.4, 389.8)">r</text><text xml:space="preserve" font-family="Avenir-Light,Avenir" font-size="50.0" fill="#FEFFFF" transform="matrix(1.00, 0.00, -0.00, -1.00, 465.0, 389.8)">a</text><text xml:space="preserve" font-family="Avenir-Light,Avenir" font-size="50.0" fill="#FEFFFF" transform="matrix(1.00, 0.00, -0.00, -1.00, 490.9, 389.8)">i</text><text xml:space="preserve" font-family="Avenir-Light,Avenir" font-size="50.0" fill="#FEFFFF" transform="matrix(1.00, 0.00, -0.00, -1.00, 502.9, 389.8)">l</text><text xml:space="preserve" font-family="Avenir-Light,Avenir" font-size="50.0" fill="#FEFFFF" transform="matrix(1.00, 0.00, -0.00, -1.00, 515.0, 389.8)">s</text><text xml:space="preserve" font-family="Avenir-Light,Avenir" font-size="50.0" fill="#FEFFFF" transform="matrix(1.00, 0.00, -0.00, -1.00, 536.2, 389.8)">.</text><text xml:space="preserve" font-family="Avenir-Light,Avenir" font-size="50.0" fill="#FEFFFF" transform="matrix(1.00, 0.00, -0.00, -1.00, 549.2, 389.8)">o</text><text xml:space="preserve" font-family="Avenir-Light,Avenir" font-size="50.0" fill="#FEFFFF" transform="matrix(1.00, 0.00, -0.00, -1.00, 579.0, 389.8)">r</text><text xml:space="preserve" font-family="Avenir-Light,Avenir" font-size="50.0" fill="#FEFFFF" transform="matrix(1.00, 0.00, -0.00, -1.00, 594.7, 389.8)">g</text><text xml:space="preserve" font-family="Avenir-Light,Avenir" font-size="50.0" fill="#FEFFFF" transform="matrix(1.00, 0.00, -0.00, -1.00, 625.2, 389.8)">/</text><text xml:space="preserve" font-family="Avenir-Light,Avenir" font-size="50.0" fill="#FEFFFF" transform="matrix(1.00, 0.00, -0.00, -1.00, 643.8, 389.8)">c</text><text xml:space="preserve" font-family="Avenir-Light,Avenir" font-size="50.0" fill="#FEFFFF" transform="matrix(1.00, 0.00, -0.00, -1.00, 667.8, 389.8)">o</text><text xml:space="preserve" font-family="Avenir-Light,Avenir" font-size="50.0" fill="#FEFFFF" transform="matrix(1.00, 0.00, -0.00, -1.00, 697.5, 389.8)">m</text><text xml:space="preserve" font-family="Avenir-Light,Avenir" font-size="50.0" fill="#FEFFFF" transform="matrix(1.00, 0.00, -0.00, -1.00, 740.1, 389.8)">m</text><text xml:space="preserve" font-family="Avenir-Light,Avenir" font-size="50.0" fill="#FEFFFF" transform="matrix(1.00, 0.00, -0.00, -1.00, 782.7, 389.8)">u</text><text xml:space="preserve" font-family="Avenir-Light,Avenir" font-size="50.0" fill="#FEFFFF" transform="matrix(1.00, 0.00, -0.00, -1.00, 810.5, 389.8)">n</text><text xml:space="preserve" font-family="Avenir-Light,Avenir" font-size="50.0" fill="#FEFFFF" transform="matrix(1.00, 0.00, -0.00, -1.00, 838.3, 389.8)">i</text><text xml:space="preserve" font-family="Avenir-Light,Avenir" font-size="50.0" fill="#FEFFFF" transform="matrix(1.00, 0.00, -0.00, -1.00, 850.3, 389.8)">t</text><text xml:space="preserve" font-family="Avenir-Light,Avenir" font-size="50.0" fill="#FEFFFF" transform="matrix(1.00, 0.00, -0.00, -1.00, 866.9, 389.8)">y</text><text xml:space="preserve" font-family="Avenir-Light,Avenir" font-size="50.0" fill="#FEFFFF" transform="matrix(1.00, 0.00, -0.00, -1.00, 890.1, 389.8)"> </text><text xml:space="preserve" font-family="Avenir-Light,Avenir" font-size="45.0" fill="#646363" transform="matrix(1.00, 0.00, -0.00, -1.00, 101.0, 264.5)">•</text><text xml:space="preserve" font-family="Avenir-Light,Avenir" font-size="50.0" fill="#FEFFFF" transform="matrix(1.00, 0.00, -0.00, -1.00, 151.0, 262.8)">h</text><text xml:space="preserve" font-family="Avenir-Light,Avenir" font-size="50.0" fill="#FEFFFF" transform="matrix(1.00, 0.00, -0.00, -1.00, 178.8, 262.8)">t</text><text xml:space="preserve" font-family="Avenir-Light,Avenir" font-size="50.0" fill="#FEFFFF" transform="matrix(1.00, 0.00, -0.00, -1.00, 195.5, 262.8)">t</text><text xml:space="preserve" font-family="Avenir-Light,Avenir" font-size="50.0" fill="#FEFFFF" transform="matrix(1.00, 0.00, -0.00, -1.00, 212.2, 262.8)">p</text><text xml:space="preserve" font-family="Avenir-Light,Avenir" font-size="50.0" fill="#FEFFFF" transform="matrix(1.00, 0.00, -0.00, -1.00, 242.7, 262.8)">s</text><text xml:space="preserve" font-family="Avenir-Light,Avenir" font-size="50.0" fill="#FEFFFF" transform="matrix(1.00, 0.00, -0.00, -1.00, 264.0, 262.8)">:</text><text xml:space="preserve" font-family="Avenir-Light,Avenir" font-size="50.0" fill="#FEFFFF" transform="matrix(1.00, 0.00, -0.00, -1.00, 277.0, 262.8)">/</text><text xml:space="preserve" font-family="Avenir-Light,Avenir" font-size="50.0" fill="#FEFFFF" transform="matrix(1.00, 0.00, -0.00, -1.00, 295.5, 262.8)">/</text><text xml:space="preserve" font-family="Avenir-Light,Avenir" font-size="50.0" fill="#FEFFFF" transform="matrix(1.00, 0.00, -0.00, -1.00, 314.0, 262.8)">d</text><text xml:space="preserve" font-family="Avenir-Light,Avenir" font-size="50.0" fill="#FEFFFF" transform="matrix(1.00, 0.00, -0.00, -1.00, 344.6, 262.8)">e</text><text xml:space="preserve" font-family="Avenir-Light,Avenir" font-size="50.0" fill="#FEFFFF" transform="matrix(1.00, 0.00, -0.00, -1.00, 372.4, 262.8)">v</text><text xml:space="preserve" font-family="Avenir-Light,Avenir" font-size="50.0" fill="#FEFFFF" transform="matrix(1.00, 0.00, -0.00, -1.00, 395.5, 262.8)">c</text><text xml:space="preserve" font-family="Avenir-Light,Avenir" font-size="50.0" fill="#FEFFFF" transform="matrix(1.00, 0.00, -0.00, -1.00, 419.6, 262.8)">e</text><text xml:space="preserve" font-family="Avenir-Light,Avenir" font-size="50.0" fill="#FEFFFF" transform="matrix(1.00, 0.00, -0.00, -1.00, 447.4, 262.8)">n</text><text xml:space="preserve" font-family="Avenir-Light,Avenir" font-size="50.0" fill="#FEFFFF" transform="matrix(1.00, 0.00, -0.00, -1.00, 475.2, 262.8)">t</text><text xml:space="preserve" font-family="Avenir-Light,Avenir" font-size="50.0" fill="#FEFFFF" transform="matrix(1.00, 0.00, -0.00, -1.00, 491.8, 262.8)">e</text><text xml:space="preserve" font-family="Avenir-Light,Avenir" font-size="50.0" fill="#FEFFFF" transform="matrix(1.00, 0.00, -0.00, -1.00, 519.6, 262.8)">r</text><text xml:space="preserve" font-family="Avenir-Light,Avenir" font-size="50.0" fill="#FEFFFF" transform="matrix(1.00, 0.00, -0.00, -1.00, 531.6, 262.8)">.</text><text xml:space="preserve" font-family="Avenir-Light,Avenir" font-size="50.0" fill="#FEFFFF" transform="matrix(1.00, 0.00, -0.00, -1.00, 544.6, 262.8)">h</text><text xml:space="preserve" font-family="Avenir-Light,Avenir" font-size="50.0" fill="#FEFFFF" transform="matrix(1.00, 0.00, -0.00, -1.00, 572.5, 262.8)">e</text><text xml:space="preserve" font-family="Avenir-Light,Avenir" font-size="50.0" fill="#FEFFFF" transform="matrix(1.00, 0.00, -0.00, -1.00, 600.2, 262.8)">r</text><text xml:space="preserve" font-family="Avenir-Light,Avenir" font-size="50.0" fill="#FEFFFF" transform="matrix(1.00, 0.00, -0.00, -1.00, 616.0, 262.8)">o</text><text xml:space="preserve" font-family="Avenir-Light,Avenir" font-size="50.0" fill="#FEFFFF" transform="matrix(1.00, 0.00, -0.00, -1.00, 645.7, 262.8)">k</text><text xml:space="preserve" font-family="Avenir-Light,Avenir" font-size="50.0" fill="#FEFFFF" transform="matrix(1.00, 0.00, -0.00, -1.00, 669.8, 262.8)">u</text><text xml:space="preserve" font-family="Avenir-Light,Avenir" font-size="50.0" fill="#FEFFFF" transform="matrix(1.00, 0.00, -0.00, -1.00, 697.5, 262.8)">.</text><text xml:space="preserve" font-family="Avenir-Light,Avenir" font-size="50.0" fill="#FEFFFF" transform="matrix(1.00, 0.00, -0.00, -1.00, 710.5, 262.8)">c</text><text xml:space="preserve" font-family="Avenir-Light,Avenir" font-size="50.0" fill="#FEFFFF" transform="matrix(1.00, 0.00, -0.00, -1.00, 734.6, 262.8)">o</text><text xml:space="preserve" font-family="Avenir-Light,Avenir" font-size="50.0" fill="#FEFFFF" transform="matrix(1.00, 0.00, -0.00, -1.00, 764.3, 262.8)">m</text><text xml:space="preserve" font-family="Avenir-Light,Avenir" font-size="50.0" fill="#FEFFFF" transform="matrix(1.00, 0.00, -0.00, -1.00, 806.9, 262.8)">/</text><text xml:space="preserve" font-family="Avenir-Light,Avenir" font-size="50.0" fill="#FEFFFF" transform="matrix(1.00, 0.00, -0.00, -1.00, 825.4, 262.8)">a</text><text xml:space="preserve" font-family="Avenir-Light,Avenir" font-size="50.0" fill="#FEFFFF" transform="matrix(1.00, 0.00, -0.00, -1.00, 851.4, 262.8)">r</text><text xml:space="preserve" font-family="Avenir-Light,Avenir" font-size="50.0" fill="#FEFFFF" transform="matrix(1.00, 0.00, -0.00, -1.00, 868.0, 262.8)">t</text><text xml:space="preserve" font-family="Avenir-Light,Avenir" font-size="50.0" fill="#FEFFFF" transform="matrix(1.00, 0.00, -0.00, -1.00, 884.7, 262.8)">i</text><text xml:space="preserve" font-family="Avenir-Light,Avenir" font-size="50.0" fill="#FEFFFF" transform="matrix(1.00, 0.00, -0.00, -1.00, 896.7, 262.8)">c</text><text xml:space="preserve" font-family="Avenir-Light,Avenir" font-size="50.0" fill="#FEFFFF" transform="matrix(1.00, 0.00, -0.00, -1.00, 920.7, 262.8)">l</text><text xml:space="preserve" font-family="Avenir-Light,Avenir" font-size="50.0" fill="#FEFFFF" transform="matrix(1.00, 0.00, -0.00, -1.00, 932.7, 262.8)">e</text><text xml:space="preserve" font-family="Avenir-Light,Avenir" font-size="50.0" fill="#FEFFFF" transform="matrix(1.00, 0.00, -0.00, -1.00, 960.5, 262.8)">s</text><text xml:space="preserve" font-family="Avenir-Light,Avenir" font-size="50.0" fill="#FEFFFF" transform="matrix(1.00, 0.00, -0.00, -1.00, 981.8, 262.8)">/</text><text xml:space="preserve" font-family="Avenir-Light,Avenir" font-size="50.0" fill="#FEFFFF" transform="matrix(1.00, 0.00, -0.00, -1.00, 1000.3, 262.8)">g</text><text xml:space="preserve" font-family="Avenir-Light,Avenir" font-size="50.0" fill="#FEFFFF" transform="matrix(1.00, 0.00, -0.00, -1.00, 1030.9, 262.8)">e</text><text xml:space="preserve" font-family="Avenir-Light,Avenir" font-size="50.0" fill="#FEFFFF" transform="matrix(1.00, 0.00, -0.00, -1.00, 1058.7, 262.8)">t</text><text xml:space="preserve" font-family="Avenir-Light,Avenir" font-size="50.0" fill="#FEFFFF" transform="matrix(1.00, 0.00, -0.00, -1.00, 1075.4, 262.8)">t</text><text xml:space="preserve" font-family="Avenir-Light,Avenir" font-size="50.0" fill="#FEFFFF" transform="matrix(1.00, 0.00, -0.00, -1.00, 1092.1, 262.8)">i</text><text xml:space="preserve" font-family="Avenir-Light,Avenir" font-size="50.0" fill="#FEFFFF" transform="matrix(1.00, 0.00, -0.00, -1.00, 1104.1, 262.8)">n</text><text xml:space="preserve" font-family="Avenir-Light,Avenir" font-size="50.0" fill="#FEFFFF" transform="matrix(1.00, 0.00, -0.00, -1.00, 1131.9, 262.8)">g</text><text xml:space="preserve" font-family="Avenir-Light,Avenir" font-size="50.0" fill="#FEFFFF" transform="matrix(1.00, 0.00, -0.00, -1.00, 1162.4, 262.8)">-</text><text xml:space="preserve" font-family="Avenir-Light,Avenir" font-size="50.0" fill="#FEFFFF" transform="matrix(1.00, 0.00, -0.00, -1.00, 1179.1, 262.8)">s</text><text xml:space="preserve" font-family="Avenir-Light,Avenir" font-size="50.0" fill="#FEFFFF" transform="matrix(1.00, 0.00, -0.00, -1.00, 1200.4, 262.8)">t</text><text xml:space="preserve" font-family="Avenir-Light,Avenir" font-size="50.0" fill="#FEFFFF" transform="matrix(1.00, 0.00, -0.00, -1.00, 1217.0, 262.8)">a</text><text xml:space="preserve" font-family="Avenir-Light,Avenir" font-size="50.0" fill="#FEFFFF" transform="matrix(1.00, 0.00, -0.00, -1.00, 1243.0, 262.8)">r</text><text xml:space="preserve" font-family="Avenir-Light,Avenir" font-size="50.0" fill="#FEFFFF" transform="matrix(1.00, 0.00, -0.00, -1.00, 1259.6, 262.8)">t</text><text xml:space="preserve" font-family="Avenir-Light,Avenir" font-size="50.0" fill="#FEFFFF" transform="matrix(1.00, 0.00, -0.00, -1.00, 1276.3, 262.8)">e</text><text xml:space="preserve" font-family="Avenir-Light,Avenir" font-size="50.0" fill="#FEFFFF" transform="matrix(1.00, 0.00, -0.00, -1.00, 1304.1, 262.8)">d</text><text xml:space="preserve" font-family="Avenir-Light,Avenir" font-size="50.0" fill="#FEFFFF" transform="matrix(1.00, 0.00, -0.00, -1.00, 1334.6, 262.8)">-</text><text xml:space="preserve" font-family="Avenir-Light,Avenir" font-size="50.0" fill="#FEFFFF" transform="matrix(1.00, 0.00, -0.00, -1.00, 1351.3, 262.8)">w</text><text xml:space="preserve" font-family="Avenir-Light,Avenir" font-size="50.0" fill="#FEFFFF" transform="matrix(1.00, 0.00, -0.00, -1.00, 1386.5, 262.8)">i</text><text xml:space="preserve" font-family="Avenir-Light,Avenir" font-size="50.0" fill="#FEFFFF" transform="matrix(1.00, 0.00, -0.00, -1.00, 1398.5, 262.8)">t</text><text xml:space="preserve" font-family="Avenir-Light,Avenir" font-size="50.0" fill="#FEFFFF" transform="matrix(1.00, 0.00, -0.00, -1.00, 1415.2, 262.8)">h</text><text xml:space="preserve" font-family="Avenir-Light,Avenir" font-size="50.0" fill="#FEFFFF" transform="matrix(1.00, 0.00, -0.00, -1.00, 1443.0, 262.8)">-</text><text xml:space="preserve" font-family="Avenir-Light,Avenir" font-size="50.0" fill="#FEFFFF" transform="matrix(1.00, 0.00, -0.00, -1.00, 1459.6, 262.8)">r</text><text xml:space="preserve" font-family="Avenir-Light,Avenir" font-size="50.0" fill="#FEFFFF" transform="matrix(1.00, 0.00, -0.00, -1.00, 1476.3, 262.8)">u</text><text xml:space="preserve" font-family="Avenir-Light,Avenir" font-size="50.0" fill="#FEFFFF" transform="matrix(1.00, 0.00, -0.00, -1.00, 1504.1, 262.8)">b</text><text xml:space="preserve" font-family="Avenir-Light,Avenir" font-size="50.0" fill="#FEFFFF" transform="matrix(1.00, 0.00, -0.00, -1.00, 1534.6, 262.8)">y</text><text xml:space="preserve" font-family="Avenir-Light,Avenir" font-size="50.0" fill="#FEFFFF" transform="matrix(1.00, 0.00, -0.00, -1.00, 1557.8, 262.8)"> </text><g><clipPath id="clip0x6100006b4e80"><path d="M 150.0 256.8 L 1557.8 256.8 L 1557.8 261.3 L 150.0 261.3 Z M 150.0 256.8 "></path></clipPath><g clip-path="url(#clip0x6100006b4e80)"><path d="M 54.0 635.5 L 1460.8 635.5 " fill="none" stroke="#FEFFFF" stroke-width="2.50" transform="matrix(1.00, 0.00, 0.00, -1.00, 97.0, 894.5)"></path></g></g><text xml:space="preserve" font-family="Avenir-Light,Avenir" font-size="45.0" fill="#646363" transform="matrix(1.00, 0.00, -0.00, -1.00, 101.0, 137.5)">•</text><text xml:space="preserve" font-family="Avenir-Light,Avenir" font-size="50.0" fill="#FEFFFF" transform="matrix(1.00, 0.00, -0.00, -1.00, 151.0, 135.8)"> </text><text xml:space="preserve" font-family="Avenir-Light,Avenir" font-size="50.0" fill="#FEFFFF" transform="matrix(1.00, 0.00, -0.00, -1.00, 164.0, 135.8)"> </text><text xml:space="preserve" font-family="Avenir-Light,Avenir" font-size="50.0" fill="#FEFFFF" transform="matrix(1.00, 0.00, -0.00, -1.00, 177.0, 135.8)"> </text><text xml:space="preserve" font-family="Avenir-Light,Avenir" font-size="50.0" fill="#FEFFFF" transform="matrix(1.00, 0.00, -0.00, -1.00, 190.0, 135.8)"> </text><text xml:space="preserve" font-family="Avenir-Light,Avenir" font-size="50.0" fill="#FEFFFF" transform="matrix(1.00, 0.00, -0.00, -1.00, 203.0, 135.8)"> </text><text xml:space="preserve" font-family="Avenir-Light,Avenir" font-size="50.0" fill="#FEFFFF" transform="matrix(1.00, 0.00, -0.00, -1.00, 216.0, 135.8)"> </text><text xml:space="preserve" font-family="Avenir-Light,Avenir" font-size="50.0" fill="#FEFFFF" transform="matrix(1.00, 0.00, -0.00, -1.00, 229.0, 135.8)"> </text><text xml:space="preserve" font-family="Avenir-Light,Avenir" font-size="50.0" fill="#FEFFFF" transform="matrix(1.00, 0.00, -0.00, -1.00, 242.0, 135.8)"> </text><text xml:space="preserve" font-family="Avenir-Light,Avenir" font-size="50.0" fill="#FEFFFF" transform="matrix(1.00, 0.00, -0.00, -1.00, 255.0, 135.8)"> </text><text xml:space="preserve" font-family="Avenir-Light,Avenir" font-size="50.0" fill="#FEFFFF" transform="matrix(1.00, 0.00, -0.00, -1.00, 268.0, 135.8)"> </text><text xml:space="preserve" font-family="Avenir-Light,Avenir" font-size="50.0" fill="#FEFFFF" transform="matrix(1.00, 0.00, -0.00, -1.00, 281.0, 135.8)"> </text><text xml:space="preserve" font-family="Avenir-Light,Avenir" font-size="50.0" fill="#FEFFFF" transform="matrix(1.00, 0.00, -0.00, -1.00, 294.0, 135.8)"> </text><text xml:space="preserve" font-family="Avenir-Light,Avenir" font-size="50.0" fill="#FEFFFF" transform="matrix(1.00, 0.00, -0.00, -1.00, 307.0, 135.8)"> </text><text xml:space="preserve" font-family="Avenir-Light,Avenir" font-size="50.0" fill="#FEFFFF" transform="matrix(1.00, 0.00, -0.00, -1.00, 320.0, 135.8)">@</text><text xml:space="preserve" font-family="Avenir-Light,Avenir" font-size="50.0" fill="#FEFFFF" transform="matrix(1.00, 0.00, -0.00, -1.00, 360.0, 135.8)">w</text><text xml:space="preserve" font-family="Avenir-Light,Avenir" font-size="50.0" fill="#FEFFFF" transform="matrix(1.00, 0.00, -0.00, -1.00, 395.2, 135.8)">i</text><text xml:space="preserve" font-family="Avenir-Light,Avenir" font-size="50.0" fill="#FEFFFF" transform="matrix(1.00, 0.00, -0.00, -1.00, 407.2, 135.8)">l</text><text xml:space="preserve" font-family="Avenir-Light,Avenir" font-size="50.0" fill="#FEFFFF" transform="matrix(1.00, 0.00, -0.00, -1.00, 419.2, 135.8)">l</text><text xml:space="preserve" font-family="Avenir-Light,Avenir" font-size="50.0" fill="#FEFFFF" transform="matrix(1.00, 0.00, -0.00, -1.00, 431.2, 135.8)">-</text><text xml:space="preserve" font-family="Avenir-Light,Avenir" font-size="50.0" fill="#FEFFFF" transform="matrix(1.00, 0.00, -0.00, -1.00, 447.9, 135.8)">s</text><text xml:space="preserve" font-family="Avenir-Light,Avenir" font-size="50.0" fill="#FEFFFF" transform="matrix(1.00, 0.00, -0.00, -1.00, 469.2, 135.8)">t</text><text xml:space="preserve" font-family="Avenir-Light,Avenir" font-size="50.0" fill="#FEFFFF" transform="matrix(1.00, 0.00, -0.00, -1.00, 485.8, 135.8)">e</text><text xml:space="preserve" font-family="Avenir-Light,Avenir" font-size="50.0" fill="#FEFFFF" transform="matrix(1.00, 0.00, -0.00, -1.00, 513.6, 135.8)">r</text><text xml:space="preserve" font-family="Avenir-Light,Avenir" font-size="50.0" fill="#FEFFFF" transform="matrix(1.00, 0.00, -0.00, -1.00, 530.3, 135.8)">l</text><text xml:space="preserve" font-family="Avenir-Light,Avenir" font-size="50.0" fill="#FEFFFF" transform="matrix(1.00, 0.00, -0.00, -1.00, 542.3, 135.8)">i</text><text xml:space="preserve" font-family="Avenir-Light,Avenir" font-size="50.0" fill="#FEFFFF" transform="matrix(1.00, 0.00, -0.00, -1.00, 554.3, 135.8)">n</text><text xml:space="preserve" font-family="Avenir-Light,Avenir" font-size="50.0" fill="#FEFFFF" transform="matrix(1.00, 0.00, -0.00, -1.00, 582.1, 135.8)">g</text><image xlink:href="25E8020AEBCCC279C0D1E51045445DFB.png" width="396.00" height="321.00" transform="matrix(0.35, 0.00, -0.00, -0.34, 159.0, 208.0)"></image></g></svg>