<?xml version="1.0" encoding="UTF-8" standalone="no"?><svg xmlns="http://www.w3.org/2000/svg" xmlns:xlink="http://www.w3.org/1999/xlink" clip-rule="evenodd" stroke-miterlimit="10" viewBox="0 0 1920 1080"><desc>SVG generated by Keynote</desc><defs></defs><g transform="matrix(1.00, 0.00, -0.00, -1.00, 0.0, 1080.0)"><path d="M 0.0 1080.0 L 1920.0 1080.0 L 1920.0 0.0 L 0.0 0.0 Z M 0.0 1080.0 " fill="#000000"></path><g><clipPath id="clip0x608000aac960"><path d="M 0.0 1080.0 L 1920.0 1080.0 L 1920.0 0.0 L 0.0 0.0 Z M 0.0 1080.0 "></path></clipPath><g clip-path="url(#clip0x608000aac960)"><image xlink:href="905B35389DE8250F6C6748F6FC10D0E7.jpeg" width="2560.00" height="1600.00" transform="matrix(0.75, 0.00, -0.00, -0.75, 0.0, 1140.0)"></image></g></g><image xlink:href="F763B2C05DD25E3B106D1E8067CE21AD.png" width="1678.00" height="67.00" transform="matrix(1.00, 0.00, -0.00, -1.00, 102.0, 944.0)"></image><text xml:space="preserve" font-family="Avenir-Heavy,Avenir" font-weight="bold" font-size="86.0" fill="#FEFFFF" transform="matrix(1.00, 0.00, -0.00, -1.00, 100.0, 884.5)">R</text><text xml:space="preserve" font-family="Avenir-Heavy,Avenir" font-weight="bold" font-size="86.0" fill="#FEFFFF" transform="matrix(1.00, 0.00, -0.00, -1.00, 167.9, 884.5)">U</text><text xml:space="preserve" font-family="Avenir-Heavy,Avenir" font-weight="bold" font-size="86.0" fill="#FEFFFF" transform="matrix(1.00, 0.00, -0.00, -1.00, 243.8, 884.5)">B</text><text xml:space="preserve" font-family="Avenir-Heavy,Avenir" font-weight="bold" font-size="86.0" fill="#FEFFFF" transform="matrix(1.00, 0.00, -0.00, -1.00, 313.3, 884.5)">Y</text><text xml:space="preserve" font-family="Avenir-Heavy,Avenir" font-weight="bold" font-size="86.0" fill="#FEFFFF" transform="matrix(1.00, 0.00, -0.00, -1.00, 381.2, 884.5)"> </text><text xml:space="preserve" font-family="Avenir-Heavy,Avenir" font-weight="bold" font-size="86.0" fill="#FEFFFF" transform="matrix(1.00, 0.00, -0.00, -1.00, 420.4, 884.5)">O</text><text xml:space="preserve" font-family="Avenir-Heavy,Avenir" font-weight="bold" font-size="86.0" fill="#FEFFFF" transform="matrix(1.00, 0.00, -0.00, -1.00, 505.8, 884.5)">N</text><text xml:space="preserve" font-family="Avenir-Heavy,Avenir" font-weight="bold" font-size="86.0" fill="#FEFFFF" transform="matrix(1.00, 0.00, -0.00, -1.00, 588.0, 884.5)"> </text><text xml:space="preserve" font-family="Avenir-Heavy,Avenir" font-weight="bold" font-size="86.0" fill="#FEFFFF" transform="matrix(1.00, 0.00, -0.00, -1.00, 627.3, 884.5)">R</text><text xml:space="preserve" font-family="Avenir-Heavy,Avenir" font-weight="bold" font-size="86.0" fill="#FEFFFF" transform="matrix(1.00, 0.00, -0.00, -1.00, 695.2, 884.5)">A</text><text xml:space="preserve" font-family="Avenir-Heavy,Avenir" font-weight="bold" font-size="86.0" fill="#FEFFFF" transform="matrix(1.00, 0.00, -0.00, -1.00, 771.1, 884.5)">I</text><text xml:space="preserve" font-family="Avenir-Heavy,Avenir" font-weight="bold" font-size="86.0" fill="#FEFFFF" transform="matrix(1.00, 0.00, -0.00, -1.00, 808.7, 884.5)">L</text><text xml:space="preserve" font-family="Avenir-Heavy,Avenir" font-weight="bold" font-size="86.0" fill="#FEFFFF" transform="matrix(1.00, 0.00, -0.00, -1.00, 867.1, 884.5)">S</text><text xml:space="preserve" font-family="Avenir-Heavy,Avenir" font-weight="bold" font-size="86.0" fill="#FEFFFF" transform="matrix(1.00, 0.00, -0.00, -1.00, 930.2, 884.5)"> </text><text xml:space="preserve" font-family="Avenir-Heavy,Avenir" font-weight="bold" font-size="86.0" fill="#FEFFFF" transform="matrix(1.00, 0.00, -0.00, -1.00, 969.5, 884.5)">I</text><text xml:space="preserve" font-family="Avenir-Heavy,Avenir" font-weight="bold" font-size="86.0" fill="#FEFFFF" transform="matrix(1.00, 0.00, -0.00, -1.00, 1007.1, 884.5)">N</text><text xml:space="preserve" font-family="Avenir-Heavy,Avenir" font-weight="bold" font-size="86.0" fill="#FEFFFF" transform="matrix(1.00, 0.00, -0.00, -1.00, 1089.3, 884.5)">T</text><text xml:space="preserve" font-family="Avenir-Heavy,Avenir" font-weight="bold" font-size="86.0" fill="#FEFFFF" transform="matrix(1.00, 0.00, -0.00, -1.00, 1152.5, 884.5)">R</text><text xml:space="preserve" font-family="Avenir-Heavy,Avenir" font-weight="bold" font-size="86.0" fill="#FEFFFF" transform="matrix(1.00, 0.00, -0.00, -1.00, 1220.4, 884.5)">O</text><text xml:space="preserve" font-family="Avenir-Heavy,Avenir" font-weight="bold" font-size="86.0" fill="#FEFFFF" transform="matrix(1.00, 0.00, -0.00, -1.00, 1305.8, 884.5)">D</text><text xml:space="preserve" font-family="Avenir-Heavy,Avenir" font-weight="bold" font-size="86.0" fill="#FEFFFF" transform="matrix(1.00, 0.00, -0.00, -1.00, 1384.8, 884.5)">U</text><text xml:space="preserve" font-family="Avenir-Heavy,Avenir" font-weight="bold" font-size="86.0" fill="#FEFFFF" transform="matrix(1.00, 0.00, -0.00, -1.00, 1460.7, 884.5)">C</text><text xml:space="preserve" font-family="Avenir-Heavy,Avenir" font-weight="bold" font-size="86.0" fill="#FEFFFF" transform="matrix(1.00, 0.00, -0.00, -1.00, 1533.4, 884.5)">T</text><text xml:space="preserve" font-family="Avenir-Heavy,Avenir" font-weight="bold" font-size="86.0" fill="#FEFFFF" transform="matrix(1.00, 0.00, -0.00, -1.00, 1596.5, 884.5)">I</text><text xml:space="preserve" font-family="Avenir-Heavy,Avenir" font-weight="bold" font-size="86.0" fill="#FEFFFF" transform="matrix(1.00, 0.00, -0.00, -1.00, 1634.2, 884.5)">O</text><text xml:space="preserve" font-family="Avenir-Heavy,Avenir" font-weight="bold" font-size="86.0" fill="#FEFFFF" transform="matrix(1.00, 0.00, -0.00, -1.00, 1719.6, 884.5)">N</text><image xlink:href="693EF7EAF073F811E8F8DE642F004C0D.png" width="380.00" height="26.00" transform="matrix(1.00, 0.00, -0.00, -1.00, 99.0, 1006.0)"></image><text xml:space="preserve" font-family="Avenir-Heavy,Avenir" font-weight="bold" font-size="32.0" fill="#FEFFFE" transform="matrix(1.00, 0.00, -0.00, -1.00, 101.0, 986.7)">W</text><text xml:space="preserve" font-family="Avenir-Heavy,Avenir" font-weight="bold" font-size="32.0" fill="#FEFFFE" transform="matrix(1.00, 0.00, -0.00, -1.00, 137.5, 986.7)">I</text><text xml:space="preserve" font-family="Avenir-Heavy,Avenir" font-weight="bold" font-size="32.0" fill="#FEFFFE" transform="matrix(1.00, 0.00, -0.00, -1.00, 151.5, 986.7)">L</text><text xml:space="preserve" font-family="Avenir-Heavy,Avenir" font-weight="bold" font-size="32.0" fill="#FEFFFE" transform="matrix(1.00, 0.00, -0.00, -1.00, 173.3, 986.7)">L</text><text xml:space="preserve" font-family="Avenir-Heavy,Avenir" font-weight="bold" font-size="32.0" fill="#FEFFFE" transform="matrix(1.00, 0.00, -0.00, -1.00, 195.0, 986.7)">A</text><text xml:space="preserve" font-family="Avenir-Heavy,Avenir" font-weight="bold" font-size="32.0" fill="#FEFFFE" transform="matrix(1.00, 0.00, -0.00, -1.00, 223.2, 986.7)">R</text><text xml:space="preserve" font-family="Avenir-Heavy,Avenir" font-weight="bold" font-size="32.0" fill="#FEFFFE" transform="matrix(1.00, 0.00, -0.00, -1.00, 248.5, 986.7)">D</text><text xml:space="preserve" font-family="Avenir-Heavy,Avenir" font-weight="bold" font-size="32.0" fill="#FEFFFE" transform="matrix(1.00, 0.00, -0.00, -1.00, 277.9, 986.7)"> </text><text xml:space="preserve" font-family="Avenir-Heavy,Avenir" font-weight="bold" font-size="32.0" fill="#FEFFFE" transform="matrix(1.00, 0.00, -0.00, -1.00, 292.5, 986.7)">S</text><text xml:space="preserve" font-family="Avenir-Heavy,Avenir" font-weight="bold" font-size="32.0" fill="#FEFFFE" transform="matrix(1.00, 0.00, -0.00, -1.00, 316.0, 986.7)">T</text><text xml:space="preserve" font-family="Avenir-Heavy,Avenir" font-weight="bold" font-size="32.0" fill="#FEFFFE" transform="matrix(1.00, 0.00, -0.00, -1.00, 339.5, 986.7)">E</text><text xml:space="preserve" font-family="Avenir-Heavy,Avenir" font-weight="bold" font-size="32.0" fill="#FEFFFE" transform="matrix(1.00, 0.00, -0.00, -1.00, 364.1, 986.7)">R</text><text xml:space="preserve" font-family="Avenir-Heavy,Avenir" font-weight="bold" font-size="32.0" fill="#FEFFFE" transform="matrix(1.00, 0.00, -0.00, -1.00, 389.4, 986.7)">L</text><text xml:space="preserve" font-family="Avenir-Heavy,Avenir" font-weight="bold" font-size="32.0" fill="#FEFFFE" transform="matrix(1.00, 0.00, -0.00, -1.00, 411.1, 986.7)">I</text><text xml:space="preserve" font-family="Avenir-Heavy,Avenir" font-weight="bold" font-size="32.0" fill="#FEFFFE" transform="matrix(1.00, 0.00, -0.00, -1.00, 425.2, 986.7)">N</text><text xml:space="preserve" font-family="Avenir-Heavy,Avenir" font-weight="bold" font-size="32.0" fill="#FEFFFE" transform="matrix(1.00, 0.00, -0.00, -1.00, 455.8, 986.7)">G</text></g></svg>