<?xml version="1.0" encoding="UTF-8" standalone="no"?><svg xmlns="http://www.w3.org/2000/svg" xmlns:xlink="http://www.w3.org/1999/xlink" clip-rule="evenodd" stroke-miterlimit="10" viewBox="0 0 1920 1080"><desc>SVG generated by Keynote</desc><defs></defs><g transform="matrix(1.00, 0.00, -0.00, -1.00, 0.0, 1080.0)"><path d="M 0.0 1080.0 L 1920.0 1080.0 L 1920.0 0.0 L 0.0 0.0 Z M 0.0 1080.0 " fill="#000000"></path><g><clipPath id="clip0x608000ab6740"><path d="M 0.0 1080.0 L 1920.0 1080.0 L 1920.0 0.0 L 0.0 0.0 Z M 0.0 1080.0 "></path></clipPath><g clip-path="url(#clip0x608000ab6740)"><image xlink:href="6980276992FB071E76C97DA680C5366F.jpeg" width="1024.00" height="768.00" transform="matrix(1.88, 0.00, -0.00, -1.88, 0.0, 1260.0)"></image></g></g><image xlink:href="BEC134A83884C399CC752D21DC6EE9E9.png" width="634.00" height="67.00" transform="matrix(1.00, 0.00, -0.00, -1.00, 101.0, 939.0)"></image><text xml:space="preserve" font-family="Avenir-Heavy,Avenir" font-weight="bold" font-size="86.0" fill="#FEFFFF" transform="matrix(1.00, 0.00, -0.00, -1.00, 101.0, 879.5)">C</text><text xml:space="preserve" font-family="Avenir-Heavy,Avenir" font-weight="bold" font-size="86.0" fill="#FEFFFF" transform="matrix(1.00, 0.00, -0.00, -1.00, 173.7, 879.5)">O</text><text xml:space="preserve" font-family="Avenir-Heavy,Avenir" font-weight="bold" font-size="86.0" fill="#FEFFFF" transform="matrix(1.00, 0.00, -0.00, -1.00, 259.1, 879.5)">N</text><text xml:space="preserve" font-family="Avenir-Heavy,Avenir" font-weight="bold" font-size="86.0" fill="#FEFFFF" transform="matrix(1.00, 0.00, -0.00, -1.00, 341.3, 879.5)">T</text><text xml:space="preserve" font-family="Avenir-Heavy,Avenir" font-weight="bold" font-size="86.0" fill="#FEFFFF" transform="matrix(1.00, 0.00, -0.00, -1.00, 404.4, 879.5)">R</text><text xml:space="preserve" font-family="Avenir-Heavy,Avenir" font-weight="bold" font-size="86.0" fill="#FEFFFF" transform="matrix(1.00, 0.00, -0.00, -1.00, 472.3, 879.5)">O</text><text xml:space="preserve" font-family="Avenir-Heavy,Avenir" font-weight="bold" font-size="86.0" fill="#FEFFFF" transform="matrix(1.00, 0.00, -0.00, -1.00, 557.7, 879.5)">L</text><text xml:space="preserve" font-family="Avenir-Heavy,Avenir" font-weight="bold" font-size="86.0" fill="#FEFFFF" transform="matrix(1.00, 0.00, -0.00, -1.00, 616.1, 879.5)">E</text><text xml:space="preserve" font-family="Avenir-Heavy,Avenir" font-weight="bold" font-size="86.0" fill="#FEFFFF" transform="matrix(1.00, 0.00, -0.00, -1.00, 682.4, 879.5)">R</text></g></svg>